<?xml version="1.0" encoding="UTF-8" standalone="no"?>
<!-- Created with Inkscape (http://www.inkscape.org/) -->

<svg
   xmlns:dc="http://purl.org/dc/elements/1.1/"
   xmlns:cc="http://creativecommons.org/ns#"
   xmlns:rdf="http://www.w3.org/1999/02/22-rdf-syntax-ns#"
   xmlns:svg="http://www.w3.org/2000/svg"
   xmlns="http://www.w3.org/2000/svg"
   xmlns:sodipodi="http://sodipodi.sourceforge.net/DTD/sodipodi-0.dtd"
   xmlns:inkscape="http://www.inkscape.org/namespaces/inkscape"
   width="700"
   height="700"
   id="svg2"
   version="1.1"
   inkscape:version="0.48.4 r9939"
   sodipodi:docname="New document 1">
  <defs
     id="defs4" />
  <sodipodi:namedview
     id="base"
     pagecolor="#ffffff"
     bordercolor="#666666"
     borderopacity="1.0"
     inkscape:pageopacity="0.0"
     inkscape:pageshadow="2"
     inkscape:zoom="0.7"
     inkscape:cx="290.46166"
     inkscape:cy="345.20965"
     inkscape:document-units="px"
     inkscape:current-layer="layer1"
     showgrid="false"
     inkscape:window-width="1920"
     inkscape:window-height="1018"
     inkscape:window-x="-8"
     inkscape:window-y="-8"
     inkscape:window-maximized="1" />
  <metadata
     id="metadata7">
    <rdf:RDF>
      <cc:Work
         rdf:about="">
        <dc:format>image/svg+xml</dc:format>
        <dc:type
           rdf:resource="http://purl.org/dc/dcmitype/StillImage" />
        <dc:title></dc:title>
      </cc:Work>
    </rdf:RDF>
  </metadata>
  <g
     inkscape:label="Layer 1"
     inkscape:groupmode="layer"
     id="layer1"
     transform="translate(0,-352.36218)">
    <g
       transform="matrix(2.123214,-1.1672901,1.1672901,2.123214,-1894.0888,-894.83376)"
       id="layer1-9"
       inkscape:label="Layer 1">
      <flowRoot
         style="font-size:40px;font-style:normal;font-weight:normal;line-height:125%;letter-spacing:0px;word-spacing:0px;fill:#000000;fill-opacity:1;stroke:none;font-family:Sans"
         id="flowRoot2989"
         xml:space="preserve"><flowRegion
           id="flowRegion2991"><rect
             y="326.56757"
             x="342.94678"
             height="105.56094"
             width="246.47722"
             id="rect2993" /></flowRegion><flowPara
           id="flowPara2995" /></flowRoot>      <flowRoot
         style="font-size:40px;font-style:normal;font-weight:normal;line-height:125%;letter-spacing:0px;word-spacing:0px;fill:#000000;fill-opacity:1;stroke:none;font-family:Sans"
         id="flowRoot2997"
         xml:space="preserve"><flowRegion
           id="flowRegion2999"><rect
             y="316.46606"
             x="319.71329"
             height="43.941635"
             width="29.7995"
             id="rect3001" /></flowRegion><flowPara
           id="flowPara3003" /></flowRoot>      <path
         inkscape:connector-curvature="0"
         id="path3322"
         d=""
         style="fill:#c83737;fill-opacity:0;stroke:#d35f5f;stroke-width:3.09106684;stroke-miterlimit:4;stroke-opacity:1;stroke-dasharray:none" />
      <path
         inkscape:connector-curvature="0"
         id="path3352"
         d=""
         style="fill:#c83737;fill-opacity:0;stroke:#800080;stroke-width:1.09285712;stroke-miterlimit:4;stroke-opacity:1;stroke-dasharray:none" />
      <flowRoot
         style="font-size:40px;font-style:normal;font-weight:normal;line-height:125%;letter-spacing:0px;word-spacing:0px;fill:#000000;fill-opacity:1;stroke:none;font-family:Sans"
         id="flowRoot3388"
         xml:space="preserve"><flowRegion
           id="flowRegion3390"><rect
             y="125.04214"
             x="24.748737"
             height="90.408653"
             width="145.46196"
             id="rect3392" /></flowRegion><flowPara
           id="flowPara3394" /></flowRoot>      <flowRoot
         style="font-size:40px;font-style:normal;font-weight:normal;line-height:125%;letter-spacing:0px;word-spacing:0px;fill:#000000;fill-opacity:1;stroke:none;font-family:Sans;-inkscape-font-specification:Sans"
         id="flowRoot3396"
         xml:space="preserve"><flowRegion
           id="flowRegion3398"><rect
             style="font-weight:normal;-inkscape-font-specification:Sans"
             y="60.392384"
             x="58.083771"
             height="87.88327"
             width="196.97975"
             id="rect3400" /></flowRegion><flowPara
           id="flowPara3402" /></flowRoot>      <g
         transform="translate(325.54097,785.11621)"
         id="g3093">
        <g
           id="g3418">
          <path
             sodipodi:nodetypes="ccccccc"
             inkscape:connector-curvature="0"
             id="path3404"
             d="M 108.46513,69.231218 152.78557,69.610025 285.0976,278.54944 258.29883,315.37359 36.972093,325.27643 4.0406102,288.18178 z"
             style="fill:none;stroke:#000000;stroke-width:1px;stroke-linecap:butt;stroke-linejoin:miter;stroke-opacity:1" />
          <path
             sodipodi:nodetypes="cccc"
             inkscape:connector-curvature="0"
             id="path3406"
             d="m 133.01363,193.75355 -24.42223,53.51705 56.56854,-2.52538 z"
             style="fill:none;stroke:#000000;stroke-width:1px;stroke-linecap:butt;stroke-linejoin:miter;stroke-opacity:1" />
          <path
             sodipodi:nodetypes="ccc"
             inkscape:connector-curvature="0"
             id="path3410"
             d="m 132.983,193.77335 21.2596,-46.04302 103.96957,167.53866"
             style="fill:none;stroke:#000000;stroke-width:1px;stroke-linecap:butt;stroke-linejoin:miter;stroke-opacity:1" />
          <path
             sodipodi:nodetypes="ccc"
             inkscape:connector-curvature="0"
             id="path3412"
             d="M 108.4637,247.16816 66.118705,248.83212 152.57933,69.437468"
             style="fill:none;stroke:#000000;stroke-width:0.90742576px;stroke-linecap:butt;stroke-linejoin:miter;stroke-opacity:1" />
          <path
             sodipodi:nodetypes="ccc"
             inkscape:connector-curvature="0"
             id="path3414"
             d="m 165.36915,244.59729 22.51922,35.50327 -183.8477598,8.5863"
             style="fill:none;stroke:#000000;stroke-width:1px;stroke-linecap:butt;stroke-linejoin:miter;stroke-opacity:1" />
        </g>
        <path
           style="fill:#800080;fill-opacity:0;stroke:#4b0080;stroke-width:2.18571424;stroke-miterlimit:4;stroke-opacity:1;stroke-dasharray:none"
           d="m 206.23384,230.13938 c -28.56882,-46.04836 -52.0502,-83.61532 -52.18085,-83.48214 -0.29906,0.30485 -19.49652,41.97533 -34.49929,74.88501 l -11.39692,25 -20.297801,0.80199 c -11.163788,0.44109 -20.35578,0.74401 -20.426648,0.67314 -0.162917,-0.16292 85.009259,-176.994116 85.251059,-176.994962 0.29063,-0.001 131.17216,206.874152 131.2128,207.398802 0.0364,0.47005 -25.12667,35.40512 -25.51949,35.42988 -0.10976,0.007 -23.57404,-37.66336 -52.14286,-83.71172 l 0,0 z"
           id="path3453"
           inkscape:connector-curvature="0" />
        <path
           style="fill:#800080;fill-opacity:0;stroke:#4b0080;stroke-width:2.18571424;stroke-miterlimit:4;stroke-opacity:1;stroke-dasharray:none"
           d="M 21.803757,307.10101 C 13.216278,297.43342 6.2505431,289.46319 6.3243452,289.38939 c 0.073802,-0.0738 40.3071018,-1.99369 89.4073308,-4.26643 49.100224,-2.27272 90.129064,-4.22212 91.175194,-4.33198 1.37801,-0.14471 1.85205,-0.33007 1.72055,-0.67274 -0.27549,-0.7179 -22.47228,-35.68981 -22.7958,-35.91567 -0.45368,-0.31672 -31.82079,-50.12197 -31.83018,-50.54051 -0.009,-0.39853 19.69618,-43.34111 20.11219,-43.8297 0.13174,-0.15472 3.30392,4.58635 7.04928,10.53572 10.65649,16.92742 95.84198,154.29723 95.7288,154.37191 -0.0557,0.0367 -48.07439,2.19652 -106.70832,4.79958 -58.633929,2.60305 -107.992893,4.82419 -109.686589,4.93585 l -3.079445,0.20303 -15.613599,-17.57744 0,0 z"
           id="path3455"
           inkscape:connector-curvature="0" />
        <path
           style="fill:#800080;fill-opacity:0;stroke:#4b0080;stroke-width:2.18571424;stroke-miterlimit:4;stroke-opacity:1;stroke-dasharray:none"
           d="M 5.3013712,287.28564 C 5.4082922,287.00701 28.769237,237.96751 57.214583,178.30896 l 51.718807,-108.470075 21.07143,0.258091 c 11.58928,0.14195 21.12058,0.306499 21.18065,0.365664 0.0601,0.05917 -19.27241,40.32416 -42.96107,89.47776 -23.68866,49.1536 -43.023524,89.41467 -42.966367,89.46904 0.05716,0.0544 9.505714,-0.27069 20.996786,-0.72236 11.491071,-0.45168 22.339281,-0.84839 24.107141,-0.88158 1.76786,-0.0332 14.78572,-0.58405 28.92857,-1.22413 18.1674,-0.82222 25.78759,-1.05115 25.96403,-0.78002 0.13736,0.21106 4.99667,7.85697 10.79848,16.9909 10.23694,16.11627 10.51986,16.60998 9.57169,16.70318 -1.68369,0.16551 -176.8496065,8.29682 -178.7312574,8.29682 -1.3956472,0 -1.7439715,-0.11084 -1.5921014,-0.50661 z"
           id="path3457"
           inkscape:connector-curvature="0" />
        <path
           style="fill:#ffff00;fill-opacity:0;stroke:#ffff00;stroke-width:2.18571424;stroke-miterlimit:4;stroke-opacity:1;stroke-dasharray:none"
           d="M 30.081316,314.44471 C 13.83276,296.12847 9.3775568,290.9267 9.7444472,290.69994 c 0.2054374,-0.12696 40.3414108,-2.13267 89.1910538,-4.45713 48.849639,-2.32445 89.283999,-4.3889 89.854139,-4.58765 0.76191,-0.2656 1.03661,-0.59218 1.03661,-1.23237 0,-0.83965 -5.54833,-9.90623 -16.3115,-26.65481 -13.48845,-20.98938 -34.12339,-53.68368 -37.75006,-59.81175 -0.15086,-0.2549 1.43151,-4.19946 3.72498,-9.28571 4.01878,-8.91252 14.63322,-31.94838 14.8295,-32.18356 0.0582,-0.0697 1.34161,1.77677 2.8521,4.10326 3.43475,5.29027 43.9168,70.4125 74.34399,119.59488 l 22.97881,37.14286 -2.4232,0.26934 c -1.33275,0.14813 -49.35177,2.35401 -106.70891,4.90194 -57.357141,2.54794 -104.968382,4.69714 -105.802755,4.77599 l -1.517041,0.14338 -7.960848,-8.9739 0,0 z"
           id="path3475"
           inkscape:connector-curvature="0" />
        <path
           style="fill:#ffff00;fill-opacity:0;stroke:#ffff00;stroke-width:2.18571424;stroke-miterlimit:4;stroke-opacity:1;stroke-dasharray:none"
           d="M 7.4261054,285.91725 C 7.5990992,285.47914 59.396894,176.72491 92.774329,106.72082 l 16.943171,-35.535717 14.42937,0.140921 c 7.93616,0.07751 16.78843,0.238221 19.67172,0.357143 l 5.24235,0.216222 -42.85166,89.235921 c -23.568415,49.07976 -42.766104,89.32148 -42.661529,89.42606 0.210464,0.21047 43.731769,-1.31873 69.135639,-2.42919 8.9375,-0.39068 19.77616,-0.74753 24.08592,-0.79299 l 7.83592,-0.0827 2.86491,4.46429 c 1.5757,2.45535 5.94812,9.36607 9.71649,15.35714 5.59691,8.89815 6.74388,10.93593 6.26345,11.12806 -0.49635,0.1985 -172.203129,8.20669 -175.1799004,8.17017 -0.6688766,-0.008 -0.9596311,-0.16629 -0.8440742,-0.45894 l 0,0 z"
           id="path3477"
           inkscape:connector-curvature="0" />
        <path
           style="fill:#ffff00;fill-opacity:0;stroke:#ffff00;stroke-width:2.18571424;stroke-miterlimit:4;stroke-opacity:1;stroke-dasharray:none"
           d="m 258.12859,310.91725 c -0.31106,-0.38949 -33.856,-54.22661 -73.82409,-118.48215 -20.39511,-32.78863 -30.26614,-48.28519 -30.55665,-47.97095 -0.47966,0.51882 -33.9371,73.12696 -43.74565,94.93524 -1.3252,2.94643 -2.51728,5.47733 -2.64908,5.62423 -0.13179,0.1469 -6.41944,0.50237 -13.972537,0.78993 -7.553099,0.28756 -16.034207,0.61954 -18.846906,0.73775 -4.86231,0.20434 -5.097095,0.18304 -4.770545,-0.43279 0.188899,-0.35623 8.892032,-18.48698 19.340295,-40.29055 C 110.6253,160.91583 152.32236,74.548093 152.69501,74.109744 c 0.24787,-0.291555 13.42892,20.294136 50.95227,79.575356 23.5146,37.14952 64.07169,101.37851 72.71543,115.15713 l 5.92377,9.44284 -0.58788,0.99521 c -1.24427,2.10638 -22.82532,32.08339 -23.09748,32.08339 -0.0638,0 -0.27643,-0.20089 -0.47253,-0.44642 z"
           id="path3479"
           inkscape:connector-curvature="0" />
        <path
           style="fill:#ffff00;fill-opacity:0;stroke:#800080;stroke-width:2.18571424;stroke-miterlimit:4;stroke-opacity:1;stroke-dasharray:none"
           d="M 27.469999,309.5117 C 21.361562,302.57493 15.360678,295.73421 14.1347,294.3101 l -2.229051,-2.58928 1.357451,0 c 0.746598,0 18.961769,-0.881 40.478158,-1.95776 21.516386,-1.07677 55.652882,-2.77035 75.858882,-3.7635 56.00985,-2.75295 59.81706,-2.99119 60.58398,-3.79101 1.28913,-1.34441 1.16842,-1.96175 -1.18096,-6.04 -2.39494,-4.15734 -3.07369,-5.23649 -25.59737,-40.69773 -17.69128,-27.85314 -26.07954,-41.34589 -26.07954,-41.9497 0,-1.17667 16.68765,-37.85708 17.28031,-37.9831 0.42954,-0.0913 41.44053,65.66122 92.84737,148.86137 4.78096,7.73781 4.83991,7.8585 3.88136,7.94624 -1.35325,0.12388 -100.41317,4.65088 -157.937614,7.21768 -26.223215,1.17011 -49.285715,2.22495 -51.25,2.34409 l -3.571429,0.21661 -11.106248,-12.61231 0,0 z"
           id="path3481"
           inkscape:connector-curvature="0" />
        <path
           style="fill:#ffff00;fill-opacity:0;stroke:#800080;stroke-width:2.18571424;stroke-miterlimit:4;stroke-opacity:1;stroke-dasharray:none"
           d="m 9.4691042,284.77045 c 0,-0.0906 22.7214978,-47.86288 50.4922178,-106.16071 L 110.45354,72.613674 127.19347,72.74872 c 9.20695,0.07428 17.42224,0.234989 18.25619,0.357143 l 1.51628,0.222097 -16.81682,35 C 104.35297,162.0162 74.126601,225.15087 67.568319,239.04225 l -5.901397,12.5 1.847522,0.11977 c 2.372739,0.15383 23.736239,-0.48213 46.311806,-1.37863 22.73911,-0.903 48.0022,-1.77449 51.42857,-1.77412 l 2.67857,2.9e-4 5.69601,9.01634 c 8.12107,12.85502 12.04863,19.2479 11.91024,19.38629 -0.23901,0.23901 -165.82896,8.02291 -170.674375,8.02291 -0.767889,0 -1.3961608,-0.0741 -1.3961608,-0.16465 z"
           id="path3483"
           inkscape:connector-curvature="0" />
        <path
           style="fill:#000000;fill-opacity:0;stroke:#800080;stroke-width:2.18571424;stroke-miterlimit:4;stroke-opacity:1;stroke-dasharray:none"
           d="M 233.94048,269.65329 C 172.61647,171.19907 156.97157,146.32344 154.17329,142.82217 l -0.68967,-0.86294 -0.71177,1.57722 c -0.39147,0.86747 -4.60859,9.93437 -9.37138,20.14865 -4.76278,10.21429 -14.72889,31.83036 -22.14689,48.03572 -7.41801,16.20535 -13.76874,30.05012 -14.11275,30.76613 -0.61398,1.27796 -0.67211,1.30585 -3.16645,1.5191 -3.93652,0.33654 -29.923856,1.35775 -31.183179,1.22538 l -1.120306,-0.11776 8.050216,-16.78571 C 93.159607,200.307 134.15344,115.23876 143.7865,95.382841 c 7.05846,-14.549089 9.14558,-18.561353 9.47482,-18.214285 1.14127,1.203089 99.56442,156.420224 125.74617,198.306624 l 1.78863,2.8615 -6.46708,9.11997 c -5.64824,7.96523 -14.89418,20.74847 -15.53789,21.48235 -0.12248,0.13965 -11.30529,-17.53893 -24.85067,-39.28571 z"
           id="path3485"
           inkscape:connector-curvature="0" />
        <path
           style="fill:#000000;fill-opacity:0;stroke:#000000;stroke-width:2.18571424;stroke-miterlimit:4;stroke-opacity:1;stroke-dasharray:none"
           d="M 38.351951,319.96731 C 38.082457,319.59217 32.647682,313.36449 26.274675,306.12803 16.1378,294.61774 14.796664,292.96053 15.560389,292.88861 c 0.480151,-0.0452 7.783715,-0.41098 16.230144,-0.81282 63.516225,-3.02179 149.043107,-7.38783 154.281547,-7.87588 4.29242,-0.39991 5.19311,-0.77969 5.90074,-2.48806 0.38389,-0.92679 0.38675,-1.37535 0.0155,-2.43838 -0.66028,-1.89072 -4.86952,-8.81913 -16.63067,-27.37408 -18.10254,-28.55943 -31.0491,-49.13207 -33.88125,-53.83873 l -2.73969,-4.55301 1.57473,-3.83985 c 1.51965,-3.70551 8.59938,-19.42063 12.30869,-27.32198 0.9913,-2.11161 1.93338,-3.83863 2.09351,-3.83783 0.35612,0.002 2.65992,3.56112 14.3311,22.1414 9.57457,15.24253 73.70242,118.55411 78.14457,125.89286 l 2.59414,4.28571 -0.96076,0.24688 c -0.8058,0.20706 -206.244672,9.63035 -209.042197,9.58857 -0.51622,-0.008 -1.159077,-0.32096 -1.428572,-0.6961 l 0,0 z"
           id="path3487"
           inkscape:connector-curvature="0" />
        <path
           style="fill:#000000;fill-opacity:0;stroke:#000000;stroke-width:2.18571424;stroke-miterlimit:4;stroke-opacity:1;stroke-dasharray:none"
           d="m 11.717355,283.0601 c 0.1,-0.24553 13.110668,-27.60714 28.912601,-60.80357 C 56.43189,189.0601 78.729929,142.21189 90.181154,118.14939 101.63238,94.086889 111.12642,74.259196 111.27902,74.087849 c 0.15679,-0.176053 7.56891,-0.196402 17.04343,-0.04679 l 16.76598,0.264749 -3.56655,7.368219 C 136.21137,92.645139 65.711436,239.89894 62.550451,246.6223 c -1.498311,3.18689 -2.724204,5.90228 -2.724204,6.03421 0,0.43218 24.893047,-0.16061 60.892853,-1.45008 19.44643,-0.69655 36.99039,-1.26755 38.98657,-1.26889 l 3.62941,-0.003 7.93984,12.6867 c 4.36691,6.97768 7.83435,12.79218 7.70542,12.92111 -0.36061,0.36068 -158.777042,7.96368 -165.930225,7.96368 -1.070532,0 -1.46127,-0.13088 -1.33276,-0.44643 z"
           id="path3489"
           inkscape:connector-curvature="0" />
        <path
           style="fill:#000000;fill-opacity:0;stroke:#000000;stroke-width:2.18571424;stroke-miterlimit:4;stroke-opacity:1;stroke-dasharray:none"
           d="m 255.22119,301.08524 c -1.84527,-2.8915 -20.87559,-33.30192 -42.28959,-67.57871 -49.32742,-78.95704 -55.97473,-89.45166 -58.89202,-92.97733 l -0.83824,-1.01305 -4.95452,10.6559 c -5.2581,11.30885 -32.08252,69.50317 -38.62484,83.79481 -2.97289,6.49425 -4.05915,8.53113 -4.61035,8.64499 -0.83941,0.1734 -14.016481,0.78652 -24.21951,1.12693 l -7.069841,0.23587 1.218642,-2.64477 c 0.670253,-1.45463 6.60282,-13.81442 13.183481,-27.46621 6.580662,-13.65178 21.567478,-44.75 33.304038,-69.10714 28.22338,-58.572618 31.56515,-65.374952 31.92131,-64.977328 1.09877,1.226692 121.82535,191.619868 125.33903,197.667278 0.51168,0.88066 0.39552,1.08552 -4.45527,7.85714 -10.71318,14.95542 -15.18355,21.05962 -15.41545,21.04948 -0.133,-0.006 -1.75159,-2.37635 -3.59687,-5.26786 l 0,0 z"
           id="path3491"
           inkscape:connector-curvature="0" />
        <path
           style="fill:#000000;fill-opacity:0;stroke:#000000;stroke-width:2.18571424;stroke-miterlimit:4;stroke-opacity:1;stroke-dasharray:none"
           d="M 257.95705,302.75814 C 257.452,302.0894 243.71098,280.2476 227.42145,254.22082 159.71378,146.04009 159.75844,146.11078 155.64393,140.60093 c -1.30691,-1.75012 -2.51528,-3.13568 -2.68525,-3.07902 -0.3559,0.11863 -0.53267,0.49729 -25.63585,54.91319 -22.23673,48.20234 -22.3463,48.4364 -22.80567,48.7203 -0.53917,0.33323 -28.122702,1.69999 -28.560986,1.4152 -0.142782,-0.0928 4.943267,-10.71974 30.575526,-63.8855 39.05103,-80.998606 46.48341,-96.26255 46.86063,-96.238054 0.2644,0.01717 28.86721,44.951564 79.10598,124.273774 33.44033,52.79907 44.82794,70.94746 44.82794,71.4421 0,0.58257 -15.29301,22.13984 -17.65115,24.88133 l -0.79976,0.92978 -0.91829,-1.21589 0,0 z"
           id="path3493"
           inkscape:connector-curvature="0" />
        <path
           style="fill:#000000;fill-opacity:0;stroke:#000000;stroke-width:2.18571424;stroke-miterlimit:4;stroke-opacity:1;stroke-dasharray:none"
           d="m 33.315664,312.16725 c -11.395229,-12.99546 -15.275131,-17.52531 -15.275131,-17.834 0,-0.16861 25.433036,-1.56047 56.517857,-3.09302 70.01799,-3.45204 113.67049,-5.82377 115.12879,-6.2552 2.61667,-0.77411 3.7105,-2.11731 3.7105,-4.55641 0,-2.3109 0.25072,-1.89508 -33.5692,-55.67209 -9.75905,-15.51786 -18.17231,-28.95293 -18.69613,-29.85573 l -0.95239,-1.64144 3.34904,-7.64427 c 4.15651,-9.48732 10.80239,-23.89941 11.20769,-24.30471 0.4132,-0.41321 7.76659,11.26121 53.46019,84.87472 34.77973,56.03099 39.3665,63.58244 38.66981,63.66424 -2.77077,0.32531 -200.969751,9.37148 -205.326554,9.37148 l -2.039458,0 -6.185014,-7.05357 0,0 z"
           id="path3495"
           inkscape:connector-curvature="0" />
        <path
           style="fill:#000000;fill-opacity:0;stroke:#000000;stroke-width:2.18571424;stroke-miterlimit:4;stroke-opacity:1;stroke-dasharray:none"
           d="m 13.856396,281.63153 c 0.37556,-0.94192 73.302315,-154.13348 90.279374,-189.642856 l 7.98257,-16.696428 12.51467,0.03545 c 6.88307,0.0195 13.80659,0.140031 15.3856,0.267857 l 2.87093,0.232411 -40.45241,84.464286 c -41.259051,86.14853 -44.576369,93.15356 -44.262583,93.46734 0.546293,0.5463 24.640882,-0.0265 86.651703,-2.05992 6.58035,-0.21578 13.31422,-0.33947 14.96414,-0.27487 l 2.99987,0.11745 3.91721,6.25 c 5.69194,9.08161 9.90449,16.03926 9.90449,16.35872 0,0.39054 -31.82094,2.05694 -103.392856,5.41449 -57.487244,2.69681 -59.644124,2.77188 -59.362708,2.06607 z"
           id="path3497"
           inkscape:connector-curvature="0" />
        <path
           style="fill:#000000;fill-opacity:0;stroke:#000000;stroke-width:2.18571424;stroke-miterlimit:4;stroke-opacity:1;stroke-dasharray:none"
           d="m 242.982,276.49469 c -8.75399,-13.92027 -29.04502,-46.25535 -45.09118,-71.85573 -32.91054,-52.50619 -36.48594,-58.14811 -39.87247,-62.91814 -2.28466,-3.21802 -5.14898,-6.38535 -5.46961,-6.04822 -0.69866,0.73462 -5.44251,10.80926 -23.44851,49.79822 -11.43013,24.75 -21.78866,47.11161 -23.01897,49.69247 l -2.23692,4.69247 -1.74119,0.21277 c -0.95765,0.11702 -4.79476,0.36914 -8.526903,0.56027 -3.732143,0.19113 -8.754464,0.44876 -11.160714,0.57252 -2.40625,0.12376 -4.375,0.15508 -4.375,0.0696 0,-0.43479 19.430032,-40.87807 51.172357,-106.51439 22.35271,-46.220615 23.70934,-48.991869 24.10199,-49.234545 0.4147,-0.256294 11.52985,16.997785 49.20267,76.377405 56.77655,89.49078 73.02743,115.35394 73.01294,116.19958 -0.0129,0.7504 -12.01335,17.9691 -15.8077,22.68144 l -0.82442,1.02387 -15.91637,-25.30959 0,0 z"
           id="path3499"
           inkscape:connector-curvature="0" />
        <path
           style="fill:#000000;fill-opacity:0;stroke:#000000;stroke-width:2.18571424;stroke-miterlimit:4;stroke-opacity:1;stroke-dasharray:none"
           d="m 255.67871,294.2958 c -5.24089,-8.45961 -84.20758,-134.23888 -89.17503,-142.03927 -8.0205,-12.59457 -12.29084,-18.03571 -14.15484,-18.03571 -0.93124,0 -2.26249,2.81435 -45.71519,96.6448 l -3.65606,7.89481 -3.450674,0.21979 c -9.473973,0.60345 -17.856777,1.00993 -18.552425,0.8996 -0.720998,-0.11435 -0.328565,-1.06823 5.413678,-13.159 10.474754,-22.05546 59.414861,-123.39851 64.338541,-133.229475 1.47149,-2.938076 2.75562,-5.341956 2.85362,-5.341956 0.44597,0 27.5268,42.383711 74.39136,116.428571 31.33895,49.51479 41.16944,65.15171 44.28027,70.43472 l 1.83323,3.11329 -3.03142,4.51083 c -3.36933,5.01364 -10.06121,14.4457 -11.31249,15.94472 l -0.80789,0.96784 -3.25468,-5.25356 z"
           id="path3501"
           inkscape:connector-curvature="0" />
        <path
           style="fill:#000000;fill-opacity:0;stroke:#000000;stroke-width:2.18571424;stroke-miterlimit:4;stroke-opacity:1;stroke-dasharray:none"
           d="m 109.92337,246.09582 c 0.0766,-0.14732 5.25643,-11.51786 11.51072,-25.26786 6.25429,-13.75 11.4645,-25.10537 11.57823,-25.23415 0.11373,-0.12878 7.08901,10.69435 15.50062,24.05141 8.4116,13.35705 15.24196,24.33282 15.17857,24.39058 -0.14278,0.1301 -49.39371,2.33876 -52.01134,2.33245 -1.04284,-0.002 -1.8334,-0.12511 -1.7568,-0.27243 l 0,0 z"
           id="path3503"
           inkscape:connector-curvature="0" />
        <path
           style="fill:#000000;fill-opacity:0;stroke:#000000;stroke-width:2.18571424;stroke-miterlimit:4;stroke-opacity:1;stroke-dasharray:none"
           d="m 16.001466,280.20296 c 0.09911,-0.24554 21.192066,-44.5625 46.873224,-98.48214 25.681154,-53.91965 47.42189,-99.602681 48.31275,-101.51786 l 1.61974,-3.482143 13.59882,0.0055 c 7.47935,0.003 13.77287,0.123544 13.9856,0.267857 0.25088,0.170196 -3.49331,8.356208 -10.65628,23.298106 -29.50699,61.55127 -66.085291,138.11306 -69.190148,144.82142 -1.909189,4.125 -3.567661,8.00475 -3.685489,8.62166 l -0.214239,1.12166 2.033567,0.25407 c 2.359704,0.29483 8.806586,0.14963 56.445639,-1.2713 19.3159,-0.57613 37.79805,-1.04401 41.07143,-1.03974 l 5.9516,0.008 6.16216,10.0503 c 3.38919,5.52766 6.11436,10.09809 6.05594,10.15651 -0.35934,0.35935 -62.48271,3.51654 -125.549374,6.3806 -31.064432,1.41073 -33.078361,1.4603 -32.81494,0.80774 z"
           id="path3505"
           inkscape:connector-curvature="0" />
        <path
           style="fill:#000000;fill-opacity:0;stroke:#000000;stroke-width:2.18571424;stroke-miterlimit:4;stroke-opacity:1;stroke-dasharray:none"
           d="m 32.268711,308.95296 c -4.236696,-4.86161 -8.597276,-9.88393 -9.690177,-11.16071 l -1.987094,-2.32143 6.670975,-0.43462 c 3.669036,-0.23904 33.510261,-1.80681 66.313832,-3.48393 85.248033,-4.35841 95.261053,-4.93997 97.142853,-5.64216 2.71523,-1.01317 3.79506,-2.5434 3.83885,-5.44001 0.0422,-2.78997 -0.0431,-2.93254 -37.00008,-61.83727 l -15.94192,-25.40942 2.8184,-6.3763 c 4.13955,-9.36522 8.33904,-18.57965 9.56784,-20.99353 l 1.0778,-2.11724 1.35915,2.11724 c 5.41535,8.43582 9.45263,14.87451 28.31243,45.15295 25.38967,40.76183 53.00005,85.39464 57.10351,92.30916 1.628,2.74325 2.84198,5.08737 2.69772,5.20916 -0.41141,0.34736 -194.281256,9.25 -201.707351,9.26254 l -2.873655,0.005 -7.703083,-8.83929 z"
           id="path3507"
           inkscape:connector-curvature="0" />
        <path
           style="fill:#000000;fill-opacity:0;stroke:#000000;stroke-width:2.18571424;stroke-miterlimit:4;stroke-opacity:1;stroke-dasharray:none"
           d="m 18.144305,278.77439 c 0.09911,-0.24554 14.793419,-31.14286 32.654026,-68.66072 17.860609,-37.51785 39.292252,-82.55652 47.625873,-100.08592 l 15.152046,-31.87163 12.41071,-0.0034 c 7.93693,-0.0022 12.41072,0.123822 12.41072,0.349467 0,0.529756 -5.55465,12.240349 -44.724233,94.290023 -19.739171,41.34821 -36.380657,76.38392 -36.981082,77.85715 -0.600425,1.4732 -1.199104,3.25801 -1.330393,3.96625 -0.235575,1.27074 -0.220707,1.29065 1.130639,1.51391 2.251765,0.37205 14.195786,0.26538 33.512208,-0.29929 33.206761,-0.97072 59.151451,-1.60945 65.375551,-1.60945 l 6.14458,0 5.02475,8.31479 c 2.76362,4.57313 5.1213,8.56635 5.23929,8.87383 0.24385,0.63547 1.18113,0.55679 -20.71274,1.73854 -15.04638,0.81214 -96.092206,4.70358 -115.107833,5.52693 -15.711632,0.6803 -18.063848,0.69343 -17.824112,0.0995 z"
           id="path3509"
           inkscape:connector-curvature="0" />
        <path
           style="fill:#000000;fill-opacity:0;stroke:#000000;stroke-width:2.18571424;stroke-miterlimit:4;stroke-opacity:1;stroke-dasharray:none"
           d="m 214.29053,225.9222 c -54.46781,-86.80323 -52.94767,-84.43306 -57.64252,-89.87509 -2.33848,-2.71065 -3.96346,-3.57178 -5.20499,-2.7583 -1.14814,0.75229 -4.09969,6.90312 -28.12501,58.61058 -11.59109,24.94643 -21.13272,45.42043 -21.20363,45.49777 -0.21184,0.23109 -15.888175,1.13353 -17.860076,1.02816 l -1.821943,-0.0974 2.57397,-5.53571 C 91.46236,218.90757 151.31755,94.958842 152.91345,92.169504 c 0.36454,-0.637151 0.74315,-1.153345 0.84137,-1.147098 0.4582,0.02914 10.20414,15.185554 45.00149,69.984124 48.66929,76.64399 73.14188,115.54455 73.46347,116.77429 0.17456,0.66754 -12.47363,19.27585 -13.10782,19.28451 -0.0982,10e-4 -20.26786,-32.01307 -44.82143,-71.14313 l 0,0 z"
           id="path3511"
           inkscape:connector-curvature="0" />
        <path
           style="fill:#000000;fill-opacity:0;stroke:#000000;stroke-width:2.18571424;stroke-miterlimit:4;stroke-opacity:1;stroke-dasharray:none"
           d="m 31.921822,306.61375 c -4.642077,-5.3429 -8.338506,-9.8126 -8.214286,-9.93268 0.12422,-0.12008 34.618711,-2.02131 76.654424,-4.22495 82.98737,-4.35047 89.13927,-4.72641 91.15997,-5.57071 2.57142,-1.07441 3.82153,-2.79299 4.22075,-5.80247 0.43831,-3.30418 0.28084,-3.57305 -35.66973,-60.90248 l -16.97906,-27.07608 1.69135,-3.81678 c 4.40266,-9.93522 10.24178,-22.55724 10.43738,-22.56175 0.50621,-0.0117 79.17563,126.41036 86.50436,139.01282 l 0.98652,1.69643 -1.17577,0.004 c -0.64667,0.002 -5.51505,0.24027 -10.81863,0.52891 -36.02593,1.96065 -179.813992,8.40896 -186.78571,8.37658 l -3.571429,-0.0166 -8.440139,-9.71436 0,-10e-6 z"
           id="path3513"
           inkscape:connector-curvature="0" />
        <path
           style="fill:#000000;fill-opacity:0;stroke:#000000;stroke-width:2.18571424;stroke-miterlimit:4;stroke-opacity:1;stroke-dasharray:none"
           d="m 112.02863,244.61052 c 0.0655,-0.17852 4.85758,-10.68745 10.64912,-23.35317 l 10.53007,-23.02859 1.11639,1.65774 c 2.18198,3.24006 9.6783,15.0666 18.25417,28.7986 l 8.69861,13.92857 -1.35037,0.23952 c -0.7427,0.13174 -5.36823,0.41735 -10.27894,0.6347 -4.91072,0.21735 -14.23215,0.62907 -20.71429,0.91494 -13.81777,0.60938 -17.06673,0.6493 -16.90476,0.20769 l 0,0 z"
           id="path3515"
           inkscape:connector-curvature="0" />
        <path
           style="fill:#000000;fill-opacity:0;stroke:#000000;stroke-width:2.18571424;stroke-miterlimit:4;stroke-opacity:1;stroke-dasharray:none"
           d="m 36.488212,309.84582 c -6.917792,-7.94819 -10.209328,-11.83955 -10.103824,-11.94505 0.102377,-0.10237 53.21267,-3.05109 114.513292,-6.35785 38.51762,-2.07777 49.33306,-2.8005 50.91627,-3.40243 2.94064,-1.11804 4.80597,-3.67403 5.05931,-6.93261 0.2691,-3.46134 -0.12587,-4.27189 -9.84382,-20.20135 -4.18085,-6.85316 -38.28327,-61.47437 -41.92024,-67.14286 -0.55664,-0.86757 -0.44419,-1.17603 3.97101,-10.89285 2.49913,-5.5 4.94868,-10.78489 5.44344,-11.7442 l 0.89958,-1.7442 5.54552,8.70849 c 11.55994,18.15328 54.79249,87.6307 71.6444,115.13705 l 7.877,12.85714 -1.49267,0.0981 c -19.52818,1.28322 -184.881976,8.64682 -194.250493,8.65043 l -3.829261,0.001 -4.429514,-5.08928 z"
           id="path3517"
           inkscape:connector-curvature="0" />
      </g>
    </g>
  </g>
</svg>
