<?xml version="1.0" encoding="UTF-8" standalone="no"?>
<!-- Created with Inkscape (http://www.inkscape.org/) -->

<svg
   xmlns:dc="http://purl.org/dc/elements/1.1/"
   xmlns:cc="http://creativecommons.org/ns#"
   xmlns:rdf="http://www.w3.org/1999/02/22-rdf-syntax-ns#"
   xmlns:svg="http://www.w3.org/2000/svg"
   xmlns="http://www.w3.org/2000/svg"
   xmlns:sodipodi="http://sodipodi.sourceforge.net/DTD/sodipodi-0.dtd"
   xmlns:inkscape="http://www.inkscape.org/namespaces/inkscape"
   width="490.24368"
   height="600.34082"
   id="svg3870"
   version="1.1"
   inkscape:version="0.48.4 r9939"
   sodipodi:docname="log.svg">
  <defs
     id="defs3872" />
  <sodipodi:namedview
     id="base"
     pagecolor="#ffffff"
     bordercolor="#666666"
     borderopacity="1.0"
     inkscape:pageopacity="0.0"
     inkscape:pageshadow="2"
     inkscape:zoom="0.35"
     inkscape:cx="47.25273"
     inkscape:cy="200.22295"
     inkscape:document-units="px"
     inkscape:current-layer="layer1"
     showgrid="false"
     inkscape:window-width="753"
     inkscape:window-height="634"
     inkscape:window-x="776"
     inkscape:window-y="106"
     inkscape:window-maximized="0"
     fit-margin-top="0"
     fit-margin-left="0"
     fit-margin-right="0"
     fit-margin-bottom="0" />
  <metadata
     id="metadata3875">
    <rdf:RDF>
      <cc:Work
         rdf:about="">
        <dc:format>image/svg+xml</dc:format>
        <dc:type
           rdf:resource="http://purl.org/dc/dcmitype/StillImage" />
        <dc:title />
      </cc:Work>
    </rdf:RDF>
  </metadata>
  <g
     inkscape:label="Layer 1"
     inkscape:groupmode="layer"
     id="layer1"
     transform="translate(-97.069604,-202.19176)">
    <rect
       style="fill:#ffffff;fill-opacity:1;stroke:#000000;stroke-width:5;stroke-linecap:square;stroke-linejoin:bevel;stroke-miterlimit:4;stroke-opacity:1;stroke-dasharray:none;stroke-dashoffset:0"
       id="rect3878"
       width="440"
       height="597.14282"
       x="145.71429"
       y="203.79076"
       ry="0" />
    <path
       sodipodi:type="arc"
       style="fill:#ffffff;fill-opacity:1;stroke:#000000;stroke-width:3.19799995;stroke-linecap:square;stroke-linejoin:bevel;stroke-miterlimit:4;stroke-opacity:1;stroke-dasharray:none;stroke-dashoffset:0"
       id="path3880"
       sodipodi:cx="41.42857"
       sodipodi:cy="295.21933"
       sodipodi:rx="41.42857"
       sodipodi:ry="17.142857"
       d="m 82.85714,295.21933 c 0,9.46774 -18.548203,17.14286 -41.42857,17.14286 C 18.548202,312.36219 0,304.68707 0,295.21933 c 0,-9.46774 18.548202,-17.14286 41.42857,-17.14286 22.880367,0 41.42857,7.67512 41.42857,17.14286 z"
       transform="translate(102.9438,-67.142858)" />
    <path
       sodipodi:type="arc"
       style="fill:#ffffff;fill-opacity:1;stroke:#000000;stroke-width:3.19799995;stroke-linecap:square;stroke-linejoin:bevel;stroke-miterlimit:4;stroke-opacity:1;stroke-dasharray:none;stroke-dashoffset:0"
       id="path3880-8"
       sodipodi:cx="41.42857"
       sodipodi:cy="295.21933"
       sodipodi:rx="41.42857"
       sodipodi:ry="17.142857"
       d="m 82.85714,295.21933 c 0,9.46774 -18.548203,17.14286 -41.42857,17.14286 C 18.548202,312.36219 0,304.68707 0,295.21933 c 0,-9.46774 18.548202,-17.14286 41.42857,-17.14286 22.880367,0 41.42857,7.67512 41.42857,17.14286 z"
       transform="translate(101.81109,-54.28572)" />
    <path
       sodipodi:type="arc"
       style="fill:#ffffff;fill-opacity:1;stroke:#000000;stroke-width:3.19799995;stroke-linecap:square;stroke-linejoin:bevel;stroke-miterlimit:4;stroke-opacity:1;stroke-dasharray:none;stroke-dashoffset:0"
       id="path3880-8-2"
       sodipodi:cx="41.42857"
       sodipodi:cy="295.21933"
       sodipodi:rx="41.42857"
       sodipodi:ry="17.142857"
       d="m 82.85714,295.21933 c 0,9.46774 -18.548203,17.14286 -41.42857,17.14286 C 18.548202,312.36219 0,304.68707 0,295.21933 c 0,-9.46774 18.548202,-17.14286 41.42857,-17.14286 22.880367,0 41.42857,7.67512 41.42857,17.14286 z"
       transform="translate(102.31617,-39.28572)" />
    <path
       sodipodi:type="arc"
       style="fill:#ffffff;fill-opacity:1;stroke:#000000;stroke-width:3.19799995;stroke-linecap:square;stroke-linejoin:bevel;stroke-miterlimit:4;stroke-opacity:1;stroke-dasharray:none;stroke-dashoffset:0"
       id="path3880-8-4"
       sodipodi:cx="41.42857"
       sodipodi:cy="295.21933"
       sodipodi:rx="41.42857"
       sodipodi:ry="17.142857"
       d="m 82.85714,295.21933 c 0,9.46774 -18.548203,17.14286 -41.42857,17.14286 C 18.548202,312.36219 0,304.68707 0,295.21933 c 0,-9.46774 18.548202,-17.14286 41.42857,-17.14286 22.880367,0 41.42857,7.67512 41.42857,17.14286 z"
       transform="translate(103.03046,-26.933653)" />
    <path
       sodipodi:type="arc"
       style="fill:#ffffff;fill-opacity:1;stroke:#000000;stroke-width:3.19799995;stroke-linecap:square;stroke-linejoin:bevel;stroke-miterlimit:4;stroke-opacity:1;stroke-dasharray:none;stroke-dashoffset:0"
       id="path3880-8-5"
       sodipodi:cx="41.42857"
       sodipodi:cy="295.21933"
       sodipodi:rx="41.42857"
       sodipodi:ry="17.142857"
       d="m 82.85714,295.21933 c 0,9.46774 -18.548203,17.14286 -41.42857,17.14286 C 18.548202,312.36219 0,304.68707 0,295.21933 c 0,-9.46774 18.548202,-17.14286 41.42857,-17.14286 22.880367,0 41.42857,7.67512 41.42857,17.14286 z"
       transform="translate(102.52538,-16.219367)" />
    <path
       sodipodi:type="arc"
       style="fill:#ffffff;fill-opacity:1;stroke:#000000;stroke-width:3.19799995;stroke-linecap:square;stroke-linejoin:bevel;stroke-miterlimit:4;stroke-opacity:1;stroke-dasharray:none;stroke-dashoffset:0"
       id="path3880-8-51"
       sodipodi:cx="41.42857"
       sodipodi:cy="295.21933"
       sodipodi:rx="41.42857"
       sodipodi:ry="17.142857"
       d="m 82.85714,295.21933 c 0,9.46774 -18.548203,17.14286 -41.42857,17.14286 C 18.548202,312.36219 0,304.68707 0,295.21933 c 0,-9.46774 18.548202,-17.14286 41.42857,-17.14286 22.880367,0 41.42857,7.67512 41.42857,17.14286 z"
       transform="translate(104.24982,-5.7142906)" />
    <path
       sodipodi:type="arc"
       style="fill:#ffffff;fill-opacity:1;stroke:#000000;stroke-width:3.19799995;stroke-linecap:square;stroke-linejoin:bevel;stroke-miterlimit:4;stroke-opacity:1;stroke-dasharray:none;stroke-dashoffset:0"
       id="path3880-8-7"
       sodipodi:cx="41.42857"
       sodipodi:cy="295.21933"
       sodipodi:rx="41.42857"
       sodipodi:ry="17.142857"
       d="m 82.85714,295.21933 c 0,9.46774 -18.548203,17.14286 -41.42857,17.14286 C 18.548202,312.36219 0,304.68707 0,295.21933 c 0,-9.46774 18.548202,-17.14286 41.42857,-17.14286 22.880367,0 41.42857,7.67512 41.42857,17.14286 z"
       transform="translate(101.21937,5.7142806)" />
    <path
       sodipodi:type="arc"
       style="fill:#ffffff;fill-opacity:1;stroke:#000000;stroke-width:3.19799995;stroke-linecap:square;stroke-linejoin:bevel;stroke-miterlimit:4;stroke-opacity:1;stroke-dasharray:none;stroke-dashoffset:0"
       id="path3880-8-1"
       sodipodi:cx="41.42857"
       sodipodi:cy="295.21933"
       sodipodi:rx="41.42857"
       sodipodi:ry="17.142857"
       d="m 82.85714,295.21933 c 0,9.46774 -18.548203,17.14286 -41.42857,17.14286 C 18.548202,312.36219 0,304.68707 0,295.21933 c 0,-9.46774 18.548202,-17.14286 41.42857,-17.14286 22.880367,0 41.42857,7.67512 41.42857,17.14286 z"
       transform="translate(100,15.714281)" />
    <path
       sodipodi:type="arc"
       style="fill:#ffffff;fill-opacity:1;stroke:#000000;stroke-width:3.19799995;stroke-linecap:square;stroke-linejoin:bevel;stroke-miterlimit:4;stroke-opacity:1;stroke-dasharray:none;stroke-dashoffset:0"
       id="path3880-8-15"
       sodipodi:cx="41.42857"
       sodipodi:cy="295.21933"
       sodipodi:rx="41.42857"
       sodipodi:ry="17.142857"
       d="m 82.85714,295.21933 c 0,9.46774 -18.548203,17.14286 -41.42857,17.14286 C 18.548202,312.36219 0,304.68707 0,295.21933 c 0,-9.46774 18.548202,-17.14286 41.42857,-17.14286 22.880367,0 41.42857,7.67512 41.42857,17.14286 z"
       transform="translate(100.71429,27.142852)" />
    <path
       sodipodi:type="arc"
       style="fill:#ffffff;fill-opacity:1;stroke:#000000;stroke-width:3.19799995;stroke-linecap:square;stroke-linejoin:bevel;stroke-miterlimit:4;stroke-opacity:1;stroke-dasharray:none;stroke-dashoffset:0"
       id="path3880-8-27"
       sodipodi:cx="41.42857"
       sodipodi:cy="295.21933"
       sodipodi:rx="41.42857"
       sodipodi:ry="17.142857"
       d="m 82.85714,295.21933 c 0,9.46774 -18.548203,17.14286 -41.42857,17.14286 C 18.548202,312.36219 0,304.68707 0,295.21933 c 0,-9.46774 18.548202,-17.14286 41.42857,-17.14286 22.880367,0 41.42857,7.67512 41.42857,17.14286 z"
       transform="translate(100.71429,38.571424)" />
    <path
       sodipodi:type="arc"
       style="fill:#ffffff;fill-opacity:1;stroke:#000000;stroke-width:3.19799995;stroke-linecap:square;stroke-linejoin:bevel;stroke-miterlimit:4;stroke-opacity:1;stroke-dasharray:none;stroke-dashoffset:0"
       id="path3880-8-27-6"
       sodipodi:cx="41.42857"
       sodipodi:cy="295.21933"
       sodipodi:rx="41.42857"
       sodipodi:ry="17.142857"
       d="m 82.85714,295.21933 c 0,9.46774 -18.548203,17.14286 -41.42857,17.14286 C 18.548202,312.36219 0,304.68707 0,295.21933 c 0,-9.46774 18.548202,-17.14286 41.42857,-17.14286 22.880367,0 41.42857,7.67512 41.42857,17.14286 z"
       transform="translate(101.42857,49.999995)" />
    <path
       sodipodi:type="arc"
       style="fill:#ffffff;fill-opacity:1;stroke:#000000;stroke-width:3.19799995;stroke-linecap:square;stroke-linejoin:bevel;stroke-miterlimit:4;stroke-opacity:1;stroke-dasharray:none;stroke-dashoffset:0"
       id="path3880-3"
       sodipodi:cx="41.42857"
       sodipodi:cy="295.21933"
       sodipodi:rx="41.42857"
       sodipodi:ry="17.142857"
       d="m 82.85714,295.21933 c 0,9.46774 -18.548203,17.14286 -41.42857,17.14286 C 18.548202,312.36219 0,304.68707 0,295.21933 c 0,-9.46774 18.548202,-17.14286 41.42857,-17.14286 22.880367,0 41.42857,7.67512 41.42857,17.14286 z"
       transform="translate(102.5,61.785714)" />
    <path
       sodipodi:type="arc"
       style="fill:#ffffff;fill-opacity:1;stroke:#000000;stroke-width:3.19799995;stroke-linecap:square;stroke-linejoin:bevel;stroke-miterlimit:4;stroke-opacity:1;stroke-dasharray:none;stroke-dashoffset:0"
       id="path3880-8-19"
       sodipodi:cx="41.42857"
       sodipodi:cy="295.21933"
       sodipodi:rx="41.42857"
       sodipodi:ry="17.142857"
       d="m 82.85714,295.21933 c 0,9.46774 -18.548203,17.14286 -41.42857,17.14286 C 18.548202,312.36219 0,304.68707 0,295.21933 c 0,-9.46774 18.548202,-17.14286 41.42857,-17.14286 22.880367,0 41.42857,7.67512 41.42857,17.14286 z"
       transform="translate(100.35714,73.928564)" />
    <path
       sodipodi:type="arc"
       style="fill:#ffffff;fill-opacity:1;stroke:#000000;stroke-width:3.19799995;stroke-linecap:square;stroke-linejoin:bevel;stroke-miterlimit:4;stroke-opacity:1;stroke-dasharray:none;stroke-dashoffset:0"
       id="path3880-8-2-8"
       sodipodi:cx="41.42857"
       sodipodi:cy="295.21933"
       sodipodi:rx="41.42857"
       sodipodi:ry="17.142857"
       d="m 82.85714,295.21933 c 0,9.46774 -18.548203,17.14286 -41.42857,17.14286 C 18.548202,312.36219 0,304.68707 0,295.21933 c 0,-9.46774 18.548202,-17.14286 41.42857,-17.14286 22.880367,0 41.42857,7.67512 41.42857,17.14286 z"
       transform="translate(99.469542,88.928564)" />
    <path
       sodipodi:type="arc"
       style="fill:#ffffff;fill-opacity:1;stroke:#000000;stroke-width:3.19799995;stroke-linecap:square;stroke-linejoin:bevel;stroke-miterlimit:4;stroke-opacity:1;stroke-dasharray:none;stroke-dashoffset:0"
       id="path3880-8-4-6"
       sodipodi:cx="41.42857"
       sodipodi:cy="295.21933"
       sodipodi:rx="41.42857"
       sodipodi:ry="17.142857"
       d="m 82.85714,295.21933 c 0,9.46774 -18.548203,17.14286 -41.42857,17.14286 C 18.548202,312.36219 0,304.68707 0,295.21933 c 0,-9.46774 18.548202,-17.14286 41.42857,-17.14286 22.880367,0 41.42857,7.67512 41.42857,17.14286 z"
       transform="translate(98.668604,101.7857)" />
    <path
       sodipodi:type="arc"
       style="fill:#ffffff;fill-opacity:1;stroke:#000000;stroke-width:3.19799995;stroke-linecap:square;stroke-linejoin:bevel;stroke-miterlimit:4;stroke-opacity:1;stroke-dasharray:none;stroke-dashoffset:0"
       id="path3880-8-5-5"
       sodipodi:cx="41.42857"
       sodipodi:cy="295.21933"
       sodipodi:rx="41.42857"
       sodipodi:ry="17.142857"
       d="m 82.85714,295.21933 c 0,9.46774 -18.548203,17.14286 -41.42857,17.14286 C 18.548202,312.36219 0,304.68707 0,295.21933 c 0,-9.46774 18.548202,-17.14286 41.42857,-17.14286 22.880367,0 41.42857,7.67512 41.42857,17.14286 z"
       transform="translate(99.678756,112.49999)" />
    <path
       sodipodi:type="arc"
       style="fill:#ffffff;fill-opacity:1;stroke:#000000;stroke-width:3.19799995;stroke-linecap:square;stroke-linejoin:bevel;stroke-miterlimit:4;stroke-opacity:1;stroke-dasharray:none;stroke-dashoffset:0"
       id="path3880-8-51-0"
       sodipodi:cx="41.42857"
       sodipodi:cy="295.21933"
       sodipodi:rx="41.42857"
       sodipodi:ry="17.142857"
       d="m 82.85714,295.21933 c 0,9.46774 -18.548203,17.14286 -41.42857,17.14286 C 18.548202,312.36219 0,304.68707 0,295.21933 c 0,-9.46774 18.548202,-17.14286 41.42857,-17.14286 22.880367,0 41.42857,7.67512 41.42857,17.14286 z"
       transform="translate(98.877817,121.99491)" />
    <path
       sodipodi:type="arc"
       style="fill:#ffffff;fill-opacity:1;stroke:#000000;stroke-width:3.19799995;stroke-linecap:square;stroke-linejoin:bevel;stroke-miterlimit:4;stroke-opacity:1;stroke-dasharray:none;stroke-dashoffset:0"
       id="path3880-8-7-2"
       sodipodi:cx="41.42857"
       sodipodi:cy="295.21933"
       sodipodi:rx="41.42857"
       sodipodi:ry="17.142857"
       d="m 82.85714,295.21933 c 0,9.46774 -18.548203,17.14286 -41.42857,17.14286 C 18.548202,312.36219 0,304.68707 0,295.21933 c 0,-9.46774 18.548202,-17.14286 41.42857,-17.14286 22.880367,0 41.42857,7.67512 41.42857,17.14286 z"
       transform="translate(100.89812,133.92856)" />
    <path
       sodipodi:type="arc"
       style="fill:#ffffff;fill-opacity:1;stroke:#000000;stroke-width:3.19799995;stroke-linecap:square;stroke-linejoin:bevel;stroke-miterlimit:4;stroke-opacity:1;stroke-dasharray:none;stroke-dashoffset:0"
       id="path3880-8-1-8"
       sodipodi:cx="41.42857"
       sodipodi:cy="295.21933"
       sodipodi:rx="41.42857"
       sodipodi:ry="17.142857"
       d="m 82.85714,295.21933 c 0,9.46774 -18.548203,17.14286 -41.42857,17.14286 C 18.548202,312.36219 0,304.68707 0,295.21933 c 0,-9.46774 18.548202,-17.14286 41.42857,-17.14286 22.880367,0 41.42857,7.67512 41.42857,17.14286 z"
       transform="translate(102.20414,143.42348)" />
    <path
       sodipodi:type="arc"
       style="fill:#ffffff;fill-opacity:1;stroke:#000000;stroke-width:3.19799995;stroke-linecap:square;stroke-linejoin:bevel;stroke-miterlimit:4;stroke-opacity:1;stroke-dasharray:none;stroke-dashoffset:0"
       id="path3880-8-15-6"
       sodipodi:cx="41.42857"
       sodipodi:cy="295.21933"
       sodipodi:rx="41.42857"
       sodipodi:ry="17.142857"
       d="m 82.85714,295.21933 c 0,9.46774 -18.548203,17.14286 -41.42857,17.14286 C 18.548202,312.36219 0,304.68707 0,295.21933 c 0,-9.46774 18.548202,-17.14286 41.42857,-17.14286 22.880367,0 41.42857,7.67512 41.42857,17.14286 z"
       transform="translate(100.89812,154.85205)" />
    <path
       sodipodi:type="arc"
       style="fill:#ffffff;fill-opacity:1;stroke:#000000;stroke-width:3.19799995;stroke-linecap:square;stroke-linejoin:bevel;stroke-miterlimit:4;stroke-opacity:1;stroke-dasharray:none;stroke-dashoffset:0"
       id="path3880-8-27-0"
       sodipodi:cx="41.42857"
       sodipodi:cy="295.21933"
       sodipodi:rx="41.42857"
       sodipodi:ry="17.142857"
       d="m 82.85714,295.21933 c 0,9.46774 -18.548203,17.14286 -41.42857,17.14286 C 18.548202,312.36219 0,304.68707 0,295.21933 c 0,-9.46774 18.548202,-17.14286 41.42857,-17.14286 22.880367,0 41.42857,7.67512 41.42857,17.14286 z"
       transform="translate(103.92858,166.7857)" />
    <path
       sodipodi:type="arc"
       style="fill:#ffffff;fill-opacity:1;stroke:#000000;stroke-width:3.19799995;stroke-linecap:square;stroke-linejoin:bevel;stroke-miterlimit:4;stroke-opacity:1;stroke-dasharray:none;stroke-dashoffset:0"
       id="path3880-8-27-6-2"
       sodipodi:cx="41.42857"
       sodipodi:cy="295.21933"
       sodipodi:rx="41.42857"
       sodipodi:ry="17.142857"
       d="m 82.85714,295.21933 c 0,9.46774 -18.548203,17.14286 -41.42857,17.14286 C 18.548202,312.36219 0,304.68707 0,295.21933 c 0,-9.46774 18.548202,-17.14286 41.42857,-17.14286 22.880367,0 41.42857,7.67512 41.42857,17.14286 z"
       transform="translate(104.64286,178.21427)" />
    <path
       sodipodi:type="arc"
       style="fill:#ffffff;fill-opacity:1;stroke:#000000;stroke-width:3.19799995;stroke-linecap:square;stroke-linejoin:bevel;stroke-miterlimit:4;stroke-opacity:1;stroke-dasharray:none;stroke-dashoffset:0"
       id="path3880-4"
       sodipodi:cx="41.42857"
       sodipodi:cy="295.21933"
       sodipodi:rx="41.42857"
       sodipodi:ry="17.142857"
       d="m 82.85714,295.21933 c 0,9.46774 -18.548203,17.14286 -41.42857,17.14286 C 18.548202,312.36219 0,304.68707 0,295.21933 c 0,-9.46774 18.548202,-17.14286 41.42857,-17.14286 22.880367,0 41.42857,7.67512 41.42857,17.14286 z"
       transform="translate(103.88021,190.35431)" />
    <path
       sodipodi:type="arc"
       style="fill:#ffffff;fill-opacity:1;stroke:#000000;stroke-width:3.19799995;stroke-linecap:square;stroke-linejoin:bevel;stroke-miterlimit:4;stroke-opacity:1;stroke-dasharray:none;stroke-dashoffset:0"
       id="path3880-8-8"
       sodipodi:cx="41.42857"
       sodipodi:cy="295.21933"
       sodipodi:rx="41.42857"
       sodipodi:ry="17.142857"
       d="m 82.85714,295.21933 c 0,9.46774 -18.548203,17.14286 -41.42857,17.14286 C 18.548202,312.36219 0,304.68707 0,295.21933 c 0,-9.46774 18.548202,-17.14286 41.42857,-17.14286 22.880367,0 41.42857,7.67512 41.42857,17.14286 z"
       transform="translate(102.36498,202.49716)" />
    <path
       sodipodi:type="arc"
       style="fill:#ffffff;fill-opacity:1;stroke:#000000;stroke-width:3.19799995;stroke-linecap:square;stroke-linejoin:bevel;stroke-miterlimit:4;stroke-opacity:1;stroke-dasharray:none;stroke-dashoffset:0"
       id="path3880-8-2-6"
       sodipodi:cx="41.42857"
       sodipodi:cy="295.21933"
       sodipodi:rx="41.42857"
       sodipodi:ry="17.142857"
       d="m 82.85714,295.21933 c 0,9.46774 -18.548203,17.14286 -41.42857,17.14286 C 18.548202,312.36219 0,304.68707 0,295.21933 c 0,-9.46774 18.548202,-17.14286 41.42857,-17.14286 22.880367,0 41.42857,7.67512 41.42857,17.14286 z"
       transform="translate(102.87006,217.49716)" />
    <path
       sodipodi:type="arc"
       style="fill:#ffffff;fill-opacity:1;stroke:#000000;stroke-width:3.19799995;stroke-linecap:square;stroke-linejoin:bevel;stroke-miterlimit:4;stroke-opacity:1;stroke-dasharray:none;stroke-dashoffset:0"
       id="path3880-8-4-5"
       sodipodi:cx="41.42857"
       sodipodi:cy="295.21933"
       sodipodi:rx="41.42857"
       sodipodi:ry="17.142857"
       d="m 82.85714,295.21933 c 0,9.46774 -18.548203,17.14286 -41.42857,17.14286 C 18.548202,312.36219 0,304.68707 0,295.21933 c 0,-9.46774 18.548202,-17.14286 41.42857,-17.14286 22.880367,0 41.42857,7.67512 41.42857,17.14286 z"
       transform="translate(103.07926,230.85938)" />
    <path
       sodipodi:type="arc"
       style="fill:#ffffff;fill-opacity:1;stroke:#000000;stroke-width:3.19799995;stroke-linecap:square;stroke-linejoin:bevel;stroke-miterlimit:4;stroke-opacity:1;stroke-dasharray:none;stroke-dashoffset:0"
       id="path3880-8-5-0"
       sodipodi:cx="41.42857"
       sodipodi:cy="295.21933"
       sodipodi:rx="41.42857"
       sodipodi:ry="17.142857"
       d="m 82.85714,295.21933 c 0,9.46774 -18.548203,17.14286 -41.42857,17.14286 C 18.548202,312.36219 0,304.68707 0,295.21933 c 0,-9.46774 18.548202,-17.14286 41.42857,-17.14286 22.880367,0 41.42857,7.67512 41.42857,17.14286 z"
       transform="translate(103.07926,241.0686)" />
    <path
       sodipodi:type="arc"
       style="fill:#ffffff;fill-opacity:1;stroke:#000000;stroke-width:3.19799995;stroke-linecap:square;stroke-linejoin:bevel;stroke-miterlimit:4;stroke-opacity:1;stroke-dasharray:none;stroke-dashoffset:0"
       id="path3880-8-51-9"
       sodipodi:cx="41.42857"
       sodipodi:cy="295.21933"
       sodipodi:rx="41.42857"
       sodipodi:ry="17.142857"
       d="m 82.85714,295.21933 c 0,9.46774 -18.548203,17.14286 -41.42857,17.14286 C 18.548202,312.36219 0,304.68707 0,295.21933 c 0,-9.46774 18.548202,-17.14286 41.42857,-17.14286 22.880367,0 41.42857,7.67512 41.42857,17.14286 z"
       transform="translate(103.79355,251.0686)" />
    <path
       sodipodi:type="arc"
       style="fill:#ffffff;fill-opacity:1;stroke:#000000;stroke-width:3.19799995;stroke-linecap:square;stroke-linejoin:bevel;stroke-miterlimit:4;stroke-opacity:1;stroke-dasharray:none;stroke-dashoffset:0"
       id="path3880-8-7-0"
       sodipodi:cx="41.42857"
       sodipodi:cy="295.21933"
       sodipodi:rx="41.42857"
       sodipodi:ry="17.142857"
       d="m 82.85714,295.21933 c 0,9.46774 -18.548203,17.14286 -41.42857,17.14286 C 18.548202,312.36219 0,304.68707 0,295.21933 c 0,-9.46774 18.548202,-17.14286 41.42857,-17.14286 22.880367,0 41.42857,7.67512 41.42857,17.14286 z"
       transform="translate(101.77325,263.50732)" />
    <path
       sodipodi:type="arc"
       style="fill:#ffffff;fill-opacity:1;stroke:#000000;stroke-width:3.19799995;stroke-linecap:square;stroke-linejoin:bevel;stroke-miterlimit:4;stroke-opacity:1;stroke-dasharray:none;stroke-dashoffset:0"
       id="path3880-8-1-0"
       sodipodi:cx="41.42857"
       sodipodi:cy="295.21933"
       sodipodi:rx="41.42857"
       sodipodi:ry="17.142857"
       d="m 82.85714,295.21933 c 0,9.46774 -18.548203,17.14286 -41.42857,17.14286 C 18.548202,312.36219 0,304.68707 0,295.21933 c 0,-9.46774 18.548202,-17.14286 41.42857,-17.14286 22.880367,0 41.42857,7.67512 41.42857,17.14286 z"
       transform="translate(101.56403,272.49717)" />
    <path
       sodipodi:type="arc"
       style="fill:#ffffff;fill-opacity:1;stroke:#000000;stroke-width:3.19799995;stroke-linecap:square;stroke-linejoin:bevel;stroke-miterlimit:4;stroke-opacity:1;stroke-dasharray:none;stroke-dashoffset:0"
       id="path3880-8-15-61"
       sodipodi:cx="41.42857"
       sodipodi:cy="295.21933"
       sodipodi:rx="41.42857"
       sodipodi:ry="17.142857"
       d="m 82.85714,295.21933 c 0,9.46774 -18.548203,17.14286 -41.42857,17.14286 C 18.548202,312.36219 0,304.68707 0,295.21933 c 0,-9.46774 18.548202,-17.14286 41.42857,-17.14286 22.880367,0 41.42857,7.67512 41.42857,17.14286 z"
       transform="translate(102.27832,283.92574)" />
    <path
       sodipodi:type="arc"
       style="fill:#ffffff;fill-opacity:1;stroke:#000000;stroke-width:3.19799995;stroke-linecap:square;stroke-linejoin:bevel;stroke-miterlimit:4;stroke-opacity:1;stroke-dasharray:none;stroke-dashoffset:0"
       id="path3880-8-27-3"
       sodipodi:cx="41.42857"
       sodipodi:cy="295.21933"
       sodipodi:rx="41.42857"
       sodipodi:ry="17.142857"
       d="m 82.85714,295.21933 c 0,9.46774 -18.548203,17.14286 -41.42857,17.14286 C 18.548202,312.36219 0,304.68707 0,295.21933 c 0,-9.46774 18.548202,-17.14286 41.42857,-17.14286 22.880367,0 41.42857,7.67512 41.42857,17.14286 z"
       transform="translate(102.27832,295.35431)" />
    <path
       sodipodi:type="arc"
       style="fill:#ffffff;fill-opacity:1;stroke:#000000;stroke-width:3.19799995;stroke-linecap:square;stroke-linejoin:bevel;stroke-miterlimit:4;stroke-opacity:1;stroke-dasharray:none;stroke-dashoffset:0"
       id="path3880-8-27-6-8"
       sodipodi:cx="41.42857"
       sodipodi:cy="295.21933"
       sodipodi:rx="41.42857"
       sodipodi:ry="17.142857"
       d="m 82.85714,295.21933 c 0,9.46774 -18.548203,17.14286 -41.42857,17.14286 C 18.548202,312.36219 0,304.68707 0,295.21933 c 0,-9.46774 18.548202,-17.14286 41.42857,-17.14286 22.880367,0 41.42857,7.67512 41.42857,17.14286 z"
       transform="translate(100.97229,306.78288)" />
    <path
       sodipodi:type="arc"
       style="fill:#ffffff;fill-opacity:1;stroke:#000000;stroke-width:3.19799995;stroke-linecap:square;stroke-linejoin:bevel;stroke-miterlimit:4;stroke-opacity:1;stroke-dasharray:none;stroke-dashoffset:0"
       id="path3880-3-9"
       sodipodi:cx="41.42857"
       sodipodi:cy="295.21933"
       sodipodi:rx="41.42857"
       sodipodi:ry="17.142857"
       d="m 82.85714,295.21933 c 0,9.46774 -18.548203,17.14286 -41.42857,17.14286 C 18.548202,312.36219 0,304.68707 0,295.21933 c 0,-9.46774 18.548202,-17.14286 41.42857,-17.14286 22.880367,0 41.42857,7.67512 41.42857,17.14286 z"
       transform="translate(102.04372,318.5686)" />
    <path
       sodipodi:type="arc"
       style="fill:#ffffff;fill-opacity:1;stroke:#000000;stroke-width:3.19799995;stroke-linecap:square;stroke-linejoin:bevel;stroke-miterlimit:4;stroke-opacity:1;stroke-dasharray:none;stroke-dashoffset:0"
       id="path3880-8-19-3"
       sodipodi:cx="41.42857"
       sodipodi:cy="295.21933"
       sodipodi:rx="41.42857"
       sodipodi:ry="17.142857"
       d="m 82.85714,295.21933 c 0,9.46774 -18.548203,17.14286 -41.42857,17.14286 C 18.548202,312.36219 0,304.68707 0,295.21933 c 0,-9.46774 18.548202,-17.14286 41.42857,-17.14286 22.880367,0 41.42857,7.67512 41.42857,17.14286 z"
       transform="translate(102.04372,330.71145)" />
    <path
       sodipodi:type="arc"
       style="fill:#ffffff;fill-opacity:1;stroke:#000000;stroke-width:3.19799995;stroke-linecap:square;stroke-linejoin:bevel;stroke-miterlimit:4;stroke-opacity:1;stroke-dasharray:none;stroke-dashoffset:0"
       id="path3880-8-2-8-4"
       sodipodi:cx="41.42857"
       sodipodi:cy="295.21933"
       sodipodi:rx="41.42857"
       sodipodi:ry="17.142857"
       d="m 82.85714,295.21933 c 0,9.46774 -18.548203,17.14286 -41.42857,17.14286 C 18.548202,312.36219 0,304.68707 0,295.21933 c 0,-9.46774 18.548202,-17.14286 41.42857,-17.14286 22.880367,0 41.42857,7.67512 41.42857,17.14286 z"
       transform="translate(101.03357,342.68099)" />
    <path
       sodipodi:type="arc"
       style="fill:#ffffff;fill-opacity:1;stroke:#000000;stroke-width:3.19799995;stroke-linecap:square;stroke-linejoin:bevel;stroke-miterlimit:4;stroke-opacity:1;stroke-dasharray:none;stroke-dashoffset:0"
       id="path3880-8-4-6-4"
       sodipodi:cx="41.42857"
       sodipodi:cy="295.21933"
       sodipodi:rx="41.42857"
       sodipodi:ry="17.142857"
       d="m 82.85714,295.21933 c 0,9.46774 -18.548203,17.14286 -41.42857,17.14286 C 18.548202,312.36219 0,304.68707 0,295.21933 c 0,-9.46774 18.548202,-17.14286 41.42857,-17.14286 22.880367,0 41.42857,7.67512 41.42857,17.14286 z"
       transform="translate(102.75801,357.05336)" />
    <path
       sodipodi:type="arc"
       style="fill:#ffffff;fill-opacity:1;stroke:#000000;stroke-width:3.19799995;stroke-linecap:square;stroke-linejoin:bevel;stroke-miterlimit:4;stroke-opacity:1;stroke-dasharray:none;stroke-dashoffset:0"
       id="path3880-8-5-5-6"
       sodipodi:cx="41.42857"
       sodipodi:cy="295.21933"
       sodipodi:rx="41.42857"
       sodipodi:ry="17.142857"
       d="m 82.85714,295.21933 c 0,9.46774 -18.548203,17.14286 -41.42857,17.14286 C 18.548202,312.36219 0,304.68707 0,295.21933 c 0,-9.46774 18.548202,-17.14286 41.42857,-17.14286 22.880367,0 41.42857,7.67512 41.42857,17.14286 z"
       transform="translate(103.26309,367.26257)" />
    <path
       sodipodi:type="arc"
       style="fill:#ffffff;fill-opacity:1;stroke:#000000;stroke-width:3.19799995;stroke-linecap:square;stroke-linejoin:bevel;stroke-miterlimit:4;stroke-opacity:1;stroke-dasharray:none;stroke-dashoffset:0"
       id="path3880-8-51-0-0"
       sodipodi:cx="41.42857"
       sodipodi:cy="295.21933"
       sodipodi:rx="41.42857"
       sodipodi:ry="17.142857"
       d="m 82.85714,295.21933 c 0,9.46774 -18.548203,17.14286 -41.42857,17.14286 C 18.548202,312.36219 0,304.68707 0,295.21933 c 0,-9.46774 18.548202,-17.14286 41.42857,-17.14286 22.880367,0 41.42857,7.67512 41.42857,17.14286 z"
       transform="translate(103.4723,377.26257)" />
    <path
       sodipodi:type="arc"
       style="fill:#ffffff;fill-opacity:1;stroke:#000000;stroke-width:3.19799995;stroke-linecap:square;stroke-linejoin:bevel;stroke-miterlimit:4;stroke-opacity:1;stroke-dasharray:none;stroke-dashoffset:0"
       id="path3880-8-7-2-6"
       sodipodi:cx="41.42857"
       sodipodi:cy="295.21933"
       sodipodi:rx="41.42857"
       sodipodi:ry="17.142857"
       d="m 82.85714,295.21933 c 0,9.46774 -18.548203,17.14286 -41.42857,17.14286 C 18.548202,312.36219 0,304.68707 0,295.21933 c 0,-9.46774 18.548202,-17.14286 41.42857,-17.14286 22.880367,0 41.42857,7.67512 41.42857,17.14286 z"
       transform="translate(102.46215,390.71145)" />
    <path
       sodipodi:type="arc"
       style="fill:#ffffff;fill-opacity:1;stroke:#000000;stroke-width:3.19799995;stroke-linecap:square;stroke-linejoin:bevel;stroke-miterlimit:4;stroke-opacity:1;stroke-dasharray:none;stroke-dashoffset:0"
       id="path3880-8-1-8-6"
       sodipodi:cx="41.42857"
       sodipodi:cy="295.21933"
       sodipodi:rx="41.42857"
       sodipodi:ry="17.142857"
       d="m 82.85714,295.21933 c 0,9.46774 -18.548203,17.14286 -41.42857,17.14286 C 18.548202,312.36219 0,304.68707 0,295.21933 c 0,-9.46774 18.548202,-17.14286 41.42857,-17.14286 22.880367,0 41.42857,7.67512 41.42857,17.14286 z"
       transform="translate(102.75801,401.7216)" />
    <path
       sodipodi:type="arc"
       style="fill:#ffffff;fill-opacity:1;stroke:#000000;stroke-width:3.19799995;stroke-linecap:square;stroke-linejoin:bevel;stroke-miterlimit:4;stroke-opacity:1;stroke-dasharray:none;stroke-dashoffset:0"
       id="path3880-8-15-6-1"
       sodipodi:cx="41.42857"
       sodipodi:cy="295.21933"
       sodipodi:rx="41.42857"
       sodipodi:ry="17.142857"
       d="m 82.85714,295.21933 c 0,9.46774 -18.548203,17.14286 -41.42857,17.14286 C 18.548202,312.36219 0,304.68707 0,295.21933 c 0,-9.46774 18.548202,-17.14286 41.42857,-17.14286 22.880367,0 41.42857,7.67512 41.42857,17.14286 z"
       transform="translate(103.4723,412.14002)" />
    <path
       sodipodi:type="arc"
       style="fill:#ffffff;fill-opacity:1;stroke:#000000;stroke-width:3.19799995;stroke-linecap:square;stroke-linejoin:bevel;stroke-miterlimit:4;stroke-opacity:1;stroke-dasharray:none;stroke-dashoffset:0"
       id="path3880-8-27-0-8"
       sodipodi:cx="41.42857"
       sodipodi:cy="295.21933"
       sodipodi:rx="41.42857"
       sodipodi:ry="17.142857"
       d="m 82.85714,295.21933 c 0,9.46774 -18.548203,17.14286 -41.42857,17.14286 C 18.548202,312.36219 0,304.68707 0,295.21933 c 0,-9.46774 18.548202,-17.14286 41.42857,-17.14286 22.880367,0 41.42857,7.67512 41.42857,17.14286 z"
       transform="translate(104.48246,423.06351)" />
    <path
       sodipodi:type="arc"
       style="fill:#ffffff;fill-opacity:1;stroke:#000000;stroke-width:3.19799995;stroke-linecap:square;stroke-linejoin:bevel;stroke-miterlimit:4;stroke-opacity:1;stroke-dasharray:none;stroke-dashoffset:0"
       id="path3880-8-27-6-2-4"
       sodipodi:cx="41.42857"
       sodipodi:cy="295.21933"
       sodipodi:rx="41.42857"
       sodipodi:ry="17.142857"
       d="m 82.85714,295.21933 c 0,9.46774 -18.548203,17.14286 -41.42857,17.14286 C 18.548202,312.36219 0,304.68707 0,295.21933 c 0,-9.46774 18.548202,-17.14286 41.42857,-17.14286 22.880367,0 41.42857,7.67512 41.42857,17.14286 z"
       transform="translate(105.19673,435.50224)" />
    <path
       sodipodi:type="arc"
       style="fill:#ffffff;fill-opacity:1;stroke:#000000;stroke-width:3.19799995;stroke-linecap:square;stroke-linejoin:bevel;stroke-miterlimit:4;stroke-opacity:1;stroke-dasharray:none;stroke-dashoffset:0"
       id="path3880-8-4-6-4-9"
       sodipodi:cx="41.42857"
       sodipodi:cy="295.21933"
       sodipodi:rx="41.42857"
       sodipodi:ry="17.142857"
       d="m 82.85714,295.21933 c 0,9.46774 -18.548203,17.14286 -41.42857,17.14286 C 18.548202,312.36219 0,304.68707 0,295.21933 c 0,-9.46774 18.548202,-17.14286 41.42857,-17.14286 22.880367,0 41.42857,7.67512 41.42857,17.14286 z"
       transform="translate(105.33941,446.18738)" />
    <path
       sodipodi:type="arc"
       style="fill:#ffffff;fill-opacity:1;stroke:#000000;stroke-width:3.19799995;stroke-linecap:square;stroke-linejoin:bevel;stroke-miterlimit:4;stroke-opacity:1;stroke-dasharray:none;stroke-dashoffset:0"
       id="path3880-8-5-5-6-6"
       sodipodi:cx="41.42857"
       sodipodi:cy="295.21933"
       sodipodi:rx="41.42857"
       sodipodi:ry="17.142857"
       d="m 82.85714,295.21933 c 0,9.46774 -18.548203,17.14286 -41.42857,17.14286 C 18.548202,312.36219 0,304.68707 0,295.21933 c 0,-9.46774 18.548202,-17.14286 41.42857,-17.14286 22.880367,0 41.42857,7.67512 41.42857,17.14286 z"
       transform="translate(104.83433,457.40675)" />
    <path
       sodipodi:type="arc"
       style="fill:#ffffff;fill-opacity:1;stroke:#000000;stroke-width:3.19799995;stroke-linecap:square;stroke-linejoin:bevel;stroke-miterlimit:4;stroke-opacity:1;stroke-dasharray:none;stroke-dashoffset:0"
       id="path3880-8-51-0-0-3"
       sodipodi:cx="41.42857"
       sodipodi:cy="295.21933"
       sodipodi:rx="41.42857"
       sodipodi:ry="17.142857"
       d="m 82.85714,295.21933 c 0,9.46774 -18.548203,17.14286 -41.42857,17.14286 C 18.548202,312.36219 0,304.68707 0,295.21933 c 0,-9.46774 18.548202,-17.14286 41.42857,-17.14286 22.880367,0 41.42857,7.67512 41.42857,17.14286 z"
       transform="translate(105.54862,467.40675)" />
    <path
       style="fill:none;stroke:#000000;stroke-width:5;stroke-linecap:butt;stroke-linejoin:miter;stroke-miterlimit:4;stroke-opacity:1;stroke-dasharray:none"
       d="m 145.71429,206.09924 0,591.99017"
       id="path4746"
       inkscape:connector-curvature="0" />
    <text
       xml:space="preserve"
       style="font-size:24px;font-style:normal;font-weight:normal;line-height:125%;letter-spacing:0px;word-spacing:0px;fill:#000000;fill-opacity:1;stroke:#000000;stroke-width:4;stroke-miterlimit:4;stroke-dasharray:none;font-family:Sans"
       x="196.60849"
       y="530.94507"
       id="text4752"
       sodipodi:linespacing="125%"><tspan
         sodipodi:role="line"
         id="tspan4754"
         x="196.60849"
         y="530.94507"
         style="font-size:175px;font-weight:normal;fill:#000000;fill-opacity:1;stroke:#000000;stroke-width:4;stroke-miterlimit:4;stroke-dasharray:none;-inkscape-font-specification:Sans">LOG</tspan></text>
  </g>
</svg>
