<?xml version="1.0" encoding="UTF-8" standalone="no"?>
<!-- Created with Inkscape (http://www.inkscape.org/) -->

<svg
   xmlns:dc="http://purl.org/dc/elements/1.1/"
   xmlns:cc="http://creativecommons.org/ns#"
   xmlns:rdf="http://www.w3.org/1999/02/22-rdf-syntax-ns#"
   xmlns:svg="http://www.w3.org/2000/svg"
   xmlns="http://www.w3.org/2000/svg"
   xmlns:sodipodi="http://sodipodi.sourceforge.net/DTD/sodipodi-0.dtd"
   xmlns:inkscape="http://www.inkscape.org/namespaces/inkscape"
   width="700"
   height="700"
   id="svg2"
   version="1.1"
   inkscape:version="0.48.4 r9939"
   sodipodi:docname="failed-penrose.svg">
  <defs
     id="defs4" />
  <sodipodi:namedview
     id="base"
     pagecolor="#ffffff"
     bordercolor="#666666"
     borderopacity="1.0"
     inkscape:pageopacity="0.0"
     inkscape:pageshadow="2"
     inkscape:zoom="0.7"
     inkscape:cx="290.46166"
     inkscape:cy="345.20965"
     inkscape:document-units="px"
     inkscape:current-layer="layer1"
     showgrid="false"
     inkscape:window-width="1920"
     inkscape:window-height="1018"
     inkscape:window-x="-8"
     inkscape:window-y="-8"
     inkscape:window-maximized="1" />
  <metadata
     id="metadata7">
    <rdf:RDF>
      <cc:Work
         rdf:about="">
        <dc:format>image/svg+xml</dc:format>
        <dc:type
           rdf:resource="http://purl.org/dc/dcmitype/StillImage" />
        <dc:title></dc:title>
      </cc:Work>
    </rdf:RDF>
  </metadata>
  <g
     inkscape:label="Layer 1"
     inkscape:groupmode="layer"
     id="layer1"
     transform="translate(0,-352.36218)">
    <g
       id="layer1-4"
       inkscape:label="Layer 1"
       transform="matrix(4.3496811,0,0,4.3496811,-78.948319,-390.349)">
      <flowRoot
         style="font-size:40px;font-style:normal;font-weight:normal;line-height:125%;letter-spacing:0px;word-spacing:0px;fill:#000000;fill-opacity:1;stroke:none;font-family:Sans"
         id="flowRoot2989"
         xml:space="preserve"><flowRegion
           id="flowRegion2991"><rect
             y="326.56757"
             x="342.94678"
             height="105.56094"
             width="246.47722"
             id="rect2993" /></flowRegion><flowPara
           id="flowPara2995" /></flowRoot>      <flowRoot
         style="font-size:40px;font-style:normal;font-weight:normal;line-height:125%;letter-spacing:0px;word-spacing:0px;fill:#000000;fill-opacity:1;stroke:none;font-family:Sans"
         id="flowRoot2997"
         xml:space="preserve"><flowRegion
           id="flowRegion2999"><rect
             y="316.46606"
             x="319.71329"
             height="43.941635"
             width="29.7995"
             id="rect3001" /></flowRegion><flowPara
           id="flowPara3003" /></flowRoot>      <path
         transform="matrix(1.0038606,0,0.03446183,0.99990621,-9.599504,0.02382838)"
         inkscape:transform-center-y="-5.8269646"
         inkscape:transform-center-x="0.092167694"
         d="m 138.3909,315.45591 -38.885851,-21.95168 -40.128256,19.58849 8.860905,-43.76609 -31.030073,-32.11106 44.362192,-5.09725 20.950613,-39.43421 18.55644,40.61581 43.97827,7.73938 -32.89369,30.1992 z"
         inkscape:randomized="0"
         inkscape:rounded="0"
         inkscape:flatsided="false"
         sodipodi:arg2="1.600696"
         sodipodi:arg1="0.97237743"
         sodipodi:r2="33.621735"
         sodipodi:r1="67.243469"
         sodipodi:cy="259.89752"
         sodipodi:cx="100.51018"
         sodipodi:sides="5"
         id="path3268"
         style="fill:#000080;fill-opacity:0;stroke:#ff0000;stroke-width:6.11999989;stroke-miterlimit:4;stroke-opacity:1;stroke-dasharray:none"
         sodipodi:type="star" />
      <path
         transform="translate(70.205602,58.083771)"
         inkscape:transform-center-y="-7.1827692"
         inkscape:transform-center-x="0.2064839"
         d="m 75.761441,262.92797 -90.842718,0.78551 -28.81901,-86.15382 73.03159,-54.0315 73.955017,52.76052 z"
         inkscape:randomized="0"
         inkscape:rounded="0"
         inkscape:flatsided="true"
         sodipodi:arg2="1.5621496"
         sodipodi:arg1="0.93383107"
         sodipodi:r2="62.519474"
         sodipodi:r1="77.27832"
         sodipodi:cy="200.80359"
         sodipodi:cx="29.7995"
         sodipodi:sides="5"
         id="path3270"
         style="fill:#00ff00;fill-opacity:0;stroke:#ff0000;stroke-width:6.11999989;stroke-miterlimit:4;stroke-opacity:1;stroke-dasharray:none"
         sodipodi:type="star" />
      <path
         inkscape:connector-curvature="0"
         id="path3274"
         d="m 118.20823,299.49171 c -9.52591,-5.25812 -17.52435,-9.56021 -17.77431,-9.56021 -0.24996,0 -8.226106,3.86845 -17.724768,8.59656 -9.498662,4.72811 -17.326623,8.53512 -17.395468,8.46003 -0.06884,-0.0751 1.358132,-8.85549 3.17106,-19.51199 l 3.296234,-19.37545 -14.207989,-14.21455 -14.20799,-14.21456 19.655376,-2.23101 19.655376,-2.23101 8.470678,-17.33826 c 4.658872,-9.53604 8.59832,-17.32565 8.754333,-17.31024 0.156008,0.0154 4.250918,8.084 9.099798,17.93021 4.84888,9.8462 8.94151,17.90218 9.09473,17.90218 0.4117,0 38.07885,6.55726 38.58258,6.71662 0.23649,0.0748 -5.44562,5.67735 -12.62691,12.45006 -7.18129,6.77271 -13.5533,12.78807 -14.16001,13.36746 l -1.10312,1.05344 3.4499,19.44543 c 1.89744,10.69499 3.41399,19.48595 3.37011,19.53547 -0.0439,0.0495 -7.87371,-4.21207 -17.39961,-9.47018 l 0,0 z"
         style="fill:#000080;fill-opacity:0;stroke:#ff0000;stroke-width:3.09106684;stroke-miterlimit:4;stroke-opacity:1;stroke-dasharray:none" />
      <path
         inkscape:connector-curvature="0"
         id="path3276"
         d="m 131.47575,304.64852 c -0.82051,-0.49662 -8.12318,-4.47162 -16.22814,-8.83332 l -14.7363,-7.93036 -16.259596,7.86607 c -8.942777,4.32633 -16.325832,7.79834 -16.406789,7.71558 -0.08096,-0.0828 1.202376,-8.2112 2.851849,-18.06321 L 73.695816,267.49055 60.427184,254.21482 C 53.129437,246.91317 47.445376,240.9391 47.795938,240.9391 c 1.416411,0 35.55896,-4.0375 35.87999,-4.24296 0.190324,-0.12181 3.86602,-7.28557 8.168212,-15.91946 4.302191,-8.6339 7.938743,-15.69269 8.08122,-15.6862 0.14248,0.006 4.00056,7.39318 8.57352,16.41489 4.57295,9.02171 8.66407,16.50024 9.09137,16.61897 0.4273,0.11872 8.44775,1.53416 17.82323,3.14541 9.37548,1.61125 17.04633,3.08346 17.04633,3.27159 0,0.18812 -4.37241,4.51166 -9.71646,9.60785 -5.34405,5.09619 -11.11356,10.62951 -12.82113,12.29626 l -3.10468,3.03046 3.17754,17.93021 c 1.74765,9.86161 3.13141,17.97861 3.07503,18.03778 -0.0564,0.0592 -0.77385,-0.29876 -1.59436,-0.79538 l 0,0 z"
         style="fill:#000080;fill-opacity:0;stroke:#808000;stroke-width:3.09106684;stroke-miterlimit:4;stroke-opacity:1;stroke-dasharray:none" />
      <path
         inkscape:connector-curvature="0"
         id="path3278"
         d="m 115.54029,293.91292 -14.94157,-8.06334 -14.179344,6.79128 c -16.697555,7.99741 -16.420987,7.88898 -16.059273,6.29604 0.146962,-0.64719 0.970694,-5.72241 1.830516,-11.27824 0.859823,-5.55584 1.99959,-12.48083 2.532818,-15.38886 l 0.969506,-5.28732 -11.973066,-12.01114 c -7.128743,-7.15142 -11.77877,-12.18529 -11.49285,-12.44155 0.264119,-0.23672 7.639673,-1.25977 16.390119,-2.27344 11.814914,-1.36867 16.052208,-2.03522 16.462792,-2.58969 0.304089,-0.41066 3.710332,-6.88817 7.56943,-14.39447 3.859097,-7.5063 7.144218,-13.64782 7.300269,-13.64782 0.156053,0 2.976853,5.17072 6.268443,11.49049 5.88822,11.3052 9.69656,18.14081 10.31802,18.51989 0.17371,0.10595 7.02072,1.36241 15.21558,2.79212 8.19486,1.42971 15.32593,2.76977 15.84682,2.97791 0.79101,0.31608 -1.00672,2.28901 -10.90906,11.97225 l -11.85613,11.5938 2.91339,16.41361 c 1.60237,9.02748 2.87329,16.45371 2.82428,16.50272 -0.049,0.049 -6.81282,-3.53939 -15.03069,-7.97424 l 0,0 z"
         style="fill:#000080;fill-opacity:0;stroke:#808000;stroke-width:3.09106684;stroke-miterlimit:4;stroke-opacity:1;stroke-dasharray:none" />
      <path
         inkscape:connector-curvature="0"
         id="path3280"
         d="m 114.31954,291.1483 -13.60742,-7.32198 -4.809537,2.27178 c -2.645249,1.24947 -8.900661,4.20662 -13.900916,6.57143 -5.670614,2.68186 -9.138052,4.06839 -9.215431,3.685 -0.06823,-0.33806 0.974986,-7.2059 2.318263,-15.26187 l 2.442324,-14.64721 -10.778292,-11.03583 c -5.92806,-6.0697 -10.778292,-11.19759 -10.778292,-11.39529 0,-0.19771 5.950507,-1.11049 13.223348,-2.0284 7.272841,-0.91792 14.105073,-1.92671 15.182737,-2.24177 1.920117,-0.56135 2.087981,-0.81579 8.374988,-12.69466 3.528579,-6.667 6.610099,-12.42773 6.847821,-12.80161 0.301258,-0.4738 1.729197,1.74529 4.712597,7.32361 2.3542,4.40186 5.7689,10.63007 7.58821,13.84046 l 3.30785,5.83707 14.92377,2.72555 14.92376,2.72554 -10.96476,10.63028 c -7.22979,7.00924 -10.95811,10.97437 -10.94521,11.64043 0.0108,0.55559 1.13429,7.37246 2.49675,15.14862 1.36246,7.77616 2.42942,14.18625 2.37102,14.24465 -0.0584,0.0584 -6.22951,-3.18871 -13.71358,-7.2158 l 0,0 z"
         style="fill:#800080;fill-opacity:0;stroke:#530080;stroke-width:3.09106684;stroke-miterlimit:4;stroke-opacity:1;stroke-dasharray:none" />
      <path
         inkscape:connector-curvature="0"
         id="path3282"
         d="m 113.06575,288.36561 -12.32048,-6.58448 -9.685483,4.57926 c -12.576602,5.94615 -15.443641,7.20293 -15.744782,6.90179 -0.136204,-0.1362 0.597823,-5.54384 1.63117,-12.01696 1.033348,-6.47312 2.001244,-12.64238 2.150881,-13.70946 0.267792,-1.90965 0.17761,-2.03667 -5.737722,-8.08122 -3.305384,-3.37759 -7.778279,-7.97256 -9.939766,-10.21105 l -3.929977,-4.06999 13.023805,-1.87469 c 9.411326,-1.3547 13.361912,-2.12314 14.242757,-2.7704 0.670423,-0.49264 3.841239,-5.71939 7.046258,-11.61499 3.205018,-5.89561 6.031907,-10.65109 6.281969,-10.56774 0.25007,0.0834 3.21593,5.16672 6.59081,11.29636 3.37487,6.12964 6.47706,11.62693 6.89374,12.21621 0.6494,0.91837 2.65126,1.41621 14.01483,3.48539 7.29146,1.3277 13.25768,2.55194 13.25825,2.72056 5e-4,0.16861 -3.48068,3.61714 -7.73613,7.66341 -4.25544,4.04627 -8.66104,8.56764 -9.79022,10.0475 l -2.05304,2.69065 2.15445,13.13198 c 1.18496,7.22259 2.11277,13.18157 2.06181,13.24217 -0.051,0.0606 -5.63687,-2.85284 -12.41313,-6.4743 l 0,0 z"
         style="fill:#000080;fill-opacity:0;stroke:#808000;stroke-width:3.09106684;stroke-miterlimit:4;stroke-opacity:1;stroke-dasharray:none" />
      <path
         inkscape:connector-curvature="0"
         id="path3284"
         d="m 114.31157,286.86392 c -4.71423,-2.49072 -9.70774,-5.10704 -11.0967,-5.81404 l -2.52538,-1.28545 -11.320353,5.33785 c -6.226194,2.93581 -11.429415,5.22878 -11.562713,5.09548 -0.133299,-0.1333 0.269496,-3.71382 0.895099,-7.95672 2.04463,-13.86689 2.259122,-15.97799 1.756928,-17.29223 -0.262398,-0.6867 -4.182569,-5.11238 -8.711489,-9.83483 -7.308225,-7.62053 -8.103552,-8.61392 -7.071067,-8.83193 0.639832,-0.13511 5.140807,-0.83644 10.002166,-1.55852 8.891359,-1.32068 11.944473,-1.94823 12.882319,-2.64788 1.082716,-0.80772 3.276203,-4.23044 7.796529,-12.1657 l 4.700321,-8.25123 6.12451,10.89625 c 5.80399,10.32602 6.23023,10.93657 8.14481,11.66644 1.53002,0.58327 21.18164,4.79891 22.3706,4.79891 0.12025,0 -3.3866,3.71006 -7.79299,8.24459 -4.40639,4.53452 -8.33942,8.86282 -8.74008,9.61843 -0.65668,1.23847 -0.54769,2.5027 1.10614,12.83055 1.00902,6.30118 1.78465,11.50663 1.72362,11.56766 -0.061,0.061 -3.96805,-1.9269 -8.68227,-4.41763 l 0,0 z"
         style="fill:#000080;fill-opacity:0;stroke:#808000;stroke-width:3.09106684;stroke-miterlimit:4;stroke-opacity:1;stroke-dasharray:none" />
      <path
         inkscape:connector-curvature="0"
         id="path3286"
         d="m 139.88116,294.35092 c -2.04397,-11.73671 -3.74332,-21.45542 -3.77632,-21.59713 -0.0904,-0.38814 30.09731,-28.84731 30.34097,-28.60365 0.27759,0.27759 -22.20213,71.54025 -22.56729,71.54025 -0.15457,0 -1.95338,-9.60276 -3.99736,-21.33947 z"
         style="fill:#000080;fill-opacity:0;stroke:#808000;stroke-width:3.09106684;stroke-miterlimit:4;stroke-opacity:1;stroke-dasharray:none" />
      <path
         inkscape:connector-curvature="0"
         id="path3288"
         d="m 143.40402,320.53615 c -0.0196,-0.25164 -1.15904,-6.50196 -2.53214,-13.8896 -1.37311,-7.38763 -3.31943,-18.07242 -4.32516,-23.74397 l -1.82859,-10.31192 4.45142,-4.49996 c 8.6404,-8.73461 28.86572,-27.40186 29.26086,-27.00672 0.3776,0.3776 -6.50718,22.85067 -17.74999,57.93889 -5.91338,18.45534 -7.21493,22.30349 -7.2764,21.51328 z m 5.24342,-23.40731 c 7.40496,-23.35001 14.37959,-45.76927 14.71762,-47.30831 0.30911,-1.40738 -0.0489,-1.18151 -4.34785,2.74316 -2.57658,2.35226 -8.47798,7.9593 -13.11422,12.46009 l -8.42951,8.18326 1.40753,7.98342 c 3.17185,17.99048 5.18736,28.43901 5.48585,28.43901 0.17395,0 2.10021,-5.62528 4.28058,-12.50063 z"
         style="fill:#000080;fill-opacity:0;stroke:#808000;stroke-width:3.09106684;stroke-miterlimit:4;stroke-opacity:1;stroke-dasharray:none" />
      <path
         inkscape:connector-curvature="0"
         id="path3290"
         d="m 145.38874,234.40413 c -12.08395,-2.1386 -22.24113,-3.98642 -22.57152,-4.10626 -0.67219,-0.24384 -21.67124,-42.25901 -21.30431,-42.62594 0.19314,-0.19315 65.90861,46.40682 67.29964,47.72333 0.61639,0.58336 -0.0717,3.03189 -0.83127,2.95784 -0.34195,-0.0333 -10.50859,-1.81037 -22.59254,-3.94897 z"
         style="fill:#000080;fill-opacity:0;stroke:#808000;stroke-width:3.09106684;stroke-miterlimit:4;stroke-opacity:1;stroke-dasharray:none" />
      <path
         inkscape:connector-curvature="0"
         id="path3292"
         d="m 162.05626,235.55817 c -2.08344,-0.39317 -11.3943,-2.08356 -20.69079,-3.75643 -9.2965,-1.67288 -17.15947,-3.25468 -17.47328,-3.51512 -0.76119,-0.63173 -17.67296,-34.2117 -17.37471,-34.49916 0.26482,-0.25524 11.96754,7.91785 39.37634,27.50012 21.5754,15.41458 21.13182,15.08866 20.45558,15.02957 -0.27779,-0.0243 -2.2097,-0.36581 -4.29314,-0.75898 l 0,0 z"
         style="fill:#000080;fill-opacity:0;stroke:#808000;stroke-width:3.09106684;stroke-miterlimit:4;stroke-opacity:1;stroke-dasharray:none" />
      <path
         inkscape:connector-curvature="0"
         id="path3294"
         d="m 35.054828,233.41557 c 2.229759,-2.10262 63.629044,-46.98064 63.755783,-46.60044 0.09115,0.27345 -4.562718,9.89261 -10.341917,21.37592 l -10.507637,20.87876 -20.455589,2.36839 c -22.215656,2.57218 -23.170614,2.65629 -22.45064,1.97737 z"
         style="fill:#000080;fill-opacity:0;stroke:#808000;stroke-width:3.09106684;stroke-miterlimit:4;stroke-opacity:1;stroke-dasharray:none" />
      <path
         inkscape:connector-curvature="0"
         id="path3296"
         d="m 41.343027,231.12448 c 0,-0.42825 51.510371,-38.14366 52.116104,-38.15892 0.471988,-0.0119 -4.604757,10.68316 -11.11575,23.41727 -3.471398,6.78931 -5.752345,10.69055 -6.402629,10.95081 -0.783559,0.31359 -32.558496,4.04196 -34.218917,4.01513 -0.208344,-0.003 -0.378808,-0.1043 -0.378808,-0.22429 z"
         style="fill:#000080;fill-opacity:0;stroke:#808000;stroke-width:3.09106684;stroke-miterlimit:4;stroke-opacity:1;stroke-dasharray:none" />
      <path
         inkscape:connector-curvature="0"
         id="path3298"
         d="M 43.52006,276.51691 C 36.258,254.72678 30.468933,236.89849 30.655467,236.89849 c 0.186533,0 7.906321,7.5697 17.155084,16.82155 l 16.815932,16.82156 -3.850359,22.69589 c -2.117698,12.48273 -3.8958,22.74133 -3.951339,22.79687 -0.05554,0.0555 -6.042665,-17.72732 -13.304725,-39.51745 l 0,0 z"
         style="fill:#000080;fill-opacity:0;stroke:#808000;stroke-width:3.09106684;stroke-miterlimit:4;stroke-opacity:1;stroke-dasharray:none" />
      <path
         inkscape:connector-curvature="0"
         id="path3300"
         d="m 45.493566,276.43705 c -5.890951,-17.67507 -10.611993,-32.23531 -10.491205,-32.3561 0.120789,-0.12079 6.402934,5.89802 13.960323,13.37513 l 13.740708,13.59476 -3.161196,18.65797 c -1.738658,10.26188 -3.200934,18.70449 -3.249503,18.76135 -0.04857,0.0568 -4.908176,-14.35804 -10.799127,-32.03311 z"
         style="fill:#000080;fill-opacity:0;stroke:#808000;stroke-width:3.09106684;stroke-miterlimit:4;stroke-opacity:1;stroke-dasharray:none" />
      <path
         inkscape:connector-curvature="0"
         id="path3302"
         d="m 79.178645,307.79387 c 12.577528,-6.21313 21.235565,-10.21173 21.718275,-10.03028 0.4415,0.16595 8.72343,4.66512 18.4043,9.99815 l 17.60158,9.69642 -12.04574,0.31035 c -6.62516,0.1707 -24.31909,0.32094 -39.319859,0.33387 l -27.274118,0.0235 20.915562,-10.33201 0,0 z"
         style="fill:#000080;fill-opacity:0;stroke:#808000;stroke-width:3.09106684;stroke-miterlimit:4;stroke-opacity:1;stroke-dasharray:none" />
      <path
         inkscape:connector-curvature="0"
         id="path3304"
         d="m 76.993732,310.97396 c 10.208077,-5.04569 22.135161,-10.7189 23.206258,-11.03824 0.28636,-0.0854 6.99125,3.36081 14.89975,7.65821 l 14.3791,7.81344 -2.02031,0.36494 c -1.11117,0.20072 -15.29716,0.37804 -31.524438,0.39405 l -29.504135,0.0291 10.563775,-5.2215 z"
         style="fill:#000080;fill-opacity:0;stroke:#808000;stroke-width:3.09106684;stroke-miterlimit:4;stroke-opacity:1;stroke-dasharray:none" />
      <path
         inkscape:connector-curvature="0"
         id="path3306"
         d="m 77.455981,312.8107 c 1.38896,-0.72458 7.05161,-3.46569 12.583668,-6.09135 l 10.058291,-4.77393 1.811,0.84765 c 3.212,1.50337 20.75137,10.93988 20.75137,11.16462 0,0.11961 -10.73919,0.20689 -23.864857,0.19395 l -23.864853,-0.0235 2.525381,-1.31743 0,0 z"
         style="fill:#000080;fill-opacity:0;stroke:#00ffff;stroke-width:3.09106684;stroke-miterlimit:4;stroke-opacity:1;stroke-dasharray:none" />
      <path
         inkscape:connector-curvature="0"
         id="path3308"
         d="m 142.18142,289.09199 c -1.33227,-7.45534 -2.52473,-13.9216 -2.64991,-14.36947 -0.25992,-0.92998 19.55215,-20.22532 19.84987,-19.33215 0.19146,0.57438 -12.60314,42.11659 -13.95763,45.31837 l -0.82002,1.93842 -2.42231,-13.55517 z"
         style="fill:#000080;fill-opacity:0;stroke:#00ffff;stroke-width:3.09106684;stroke-miterlimit:4;stroke-opacity:1;stroke-dasharray:none" />
      <path
         inkscape:connector-curvature="0"
         id="path3310"
         d="m 141.81366,230.06073 c -7.93883,-1.49476 -15.01735,-2.93945 -15.73006,-3.21042 -1.04477,-0.39723 -2.58604,-3.05175 -7.95543,-13.70168 -3.66278,-7.26495 -6.57185,-13.29676 -6.46459,-13.40401 0.10725,-0.10726 1.09123,0.40661 2.1866,1.14194 2.90978,1.95333 43.82691,31.01858 44.39275,31.53414 0.85604,0.77996 -1.71204,0.41107 -16.42927,-2.35997 l 0,0 z"
         style="fill:#000080;fill-opacity:0;stroke:#00ffff;stroke-width:3.09106684;stroke-miterlimit:4;stroke-opacity:1;stroke-dasharray:none" />
      <path
         inkscape:connector-curvature="0"
         id="path3312"
         d="m 48.919172,227.77435 c 0.694479,-0.60538 8.876715,-6.67349 18.182745,-13.4847 22.024779,-16.12021 21.71828,-15.89948 21.71828,-15.64091 0,1.02824 -12.513759,25.68191 -13.556588,26.70818 -0.29436,0.28968 -16.418099,2.39891 -24.576671,3.21499 l -3.030457,0.30312 1.262691,-1.10068 z"
         style="fill:#000080;fill-opacity:0;stroke:#00ffff;stroke-width:3.09106684;stroke-miterlimit:4;stroke-opacity:1;stroke-dasharray:none" />
      <path
         inkscape:connector-curvature="0"
         id="path3314"
         d="m 47.776464,277.17113 c -4.340299,-13.12172 -8.050128,-24.42212 -8.244065,-25.11202 -0.437645,-1.55685 4.413823,2.75755 14.403115,12.80864 l 6.78411,6.82608 -2.430251,14.54841 c -1.336637,8.00162 -2.473271,14.60198 -2.525853,14.66747 -0.05258,0.0655 -3.646758,-10.61687 -7.987056,-23.73858 l 0,0 z"
         style="fill:#000080;fill-opacity:0;stroke:#00ffff;stroke-width:3.09106684;stroke-miterlimit:4;stroke-opacity:1;stroke-dasharray:none" />
      <path
         inkscape:connector-curvature="0"
         id="path3316"
         d="m 110.56775,282.79765 -9.78929,-5.05979 -9.893473,4.59409 c -5.44141,2.52676 -10.063935,4.58848 -10.272279,4.5816 -0.597226,-0.0197 -0.453823,-2.29138 0.623445,-9.87605 1.352398,-9.52177 1.32959,-12.32814 -0.115295,-14.18574 -0.623341,-0.80139 -3.954554,-4.52541 -7.402696,-8.2756 -3.668147,-3.98947 -5.974583,-6.87028 -5.558913,-6.94327 0.39074,-0.0686 4.780255,-0.80441 9.754478,-1.63513 4.974223,-0.83072 9.561597,-1.84951 10.194164,-2.26398 1.644144,-1.07729 3.146576,-3.20898 7.309437,-10.37082 2.01835,-3.4724 3.942719,-6.61553 4.276376,-6.98473 0.488326,-0.54035 0.975996,0.001 2.500266,2.77792 4.58557,8.35254 8.89221,15.23023 9.98524,15.94642 0.65144,0.42684 4.924,1.59881 9.49457,2.60436 4.57057,1.00556 8.98755,2.00378 9.8155,2.21826 l 1.50537,0.38997 -5.99587,6.29738 c -7.82607,8.21961 -8.88615,9.68946 -8.8766,12.3078 0.004,1.13894 0.56989,5.80451 1.25721,10.36794 0.68731,4.56343 1.18846,8.35835 1.11366,8.43316 -0.0748,0.0748 -4.54119,-2.14091 -9.9253,-4.92379 l 0,0 z"
         style="fill:#000080;fill-opacity:0;stroke:#00ffff;stroke-width:3.09106684;stroke-miterlimit:4;stroke-opacity:1;stroke-dasharray:none" />
      <path
         inkscape:connector-curvature="0"
         id="path3318"
         d="m 109.11798,280.01301 -8.23902,-4.33218 -8.842704,4.09487 c -4.863486,2.25219 -9.054055,4.09488 -9.312376,4.09488 -0.594045,0 -0.586315,-0.17627 0.28794,-6.56599 1.056619,-7.72258 0.985801,-13.01578 -0.199344,-14.89975 -0.52425,-0.83337 -3.270634,-4.09781 -6.103077,-7.2543 -2.832443,-3.15649 -4.95961,-5.90419 -4.727038,-6.10599 0.232571,-0.2018 2.809343,-0.76242 5.726158,-1.24582 7.706607,-1.27719 11.208085,-2.25123 12.550036,-3.49114 0.6522,-0.6026 3.126284,-4.22791 5.497963,-8.05623 2.371679,-3.82832 4.372102,-6.89666 4.445392,-6.81853 0.0733,0.0781 1.65643,2.75132 3.5181,5.94043 1.86166,3.1891 4.21423,6.99943 5.22792,8.46738 2.09441,3.03297 2.96949,3.40617 13.96492,5.95573 3.3335,0.77296 6.14584,1.473 6.24965,1.55565 0.10381,0.0827 -2.12997,2.60334 -4.96395,5.60154 -2.83398,2.99821 -5.72496,6.41761 -6.4244,7.59868 -1.49988,2.53268 -1.56094,4.32102 -0.43432,12.72024 0.88652,6.60922 0.91443,7.1088 0.39598,7.08794 -0.20834,-0.008 -4.08636,-1.96472 -8.61783,-4.34741 l 0,0 z"
         style="fill:#c83737;fill-opacity:0;stroke:#00ffff;stroke-width:3.09106684;stroke-miterlimit:4;stroke-opacity:1;stroke-dasharray:none" />
      <path
         inkscape:connector-curvature="0"
         id="path3320"
         d="m 84.486204,280.20708 c 0.607704,-2.0984 0.929369,-16.23356 0.399367,-17.5497 -0.279663,-0.69448 -2.594644,-3.72635 -5.144401,-6.7375 -2.549757,-3.01114 -4.561576,-5.54818 -4.470708,-5.63787 0.09087,-0.0897 3.006268,-0.7606 6.478667,-1.49092 3.4724,-0.73031 7.108949,-1.73007 8.081221,-2.22168 1.294908,-0.65474 2.906569,-2.59602 6.025139,-7.2574 l 4.257371,-6.36356 4.07639,6.6245 c 5.11528,8.31279 5.89074,8.89613 14.68299,11.04523 3.61129,0.88271 6.65816,1.67727 6.77083,1.76569 0.11266,0.0884 -0.91287,1.35653 -2.27897,2.81803 -8.24204,8.81764 -8.9323,10.33162 -8.24001,18.0731 0.23545,2.63296 0.56038,5.52588 0.72205,6.4287 0.16167,0.90283 0.16878,1.6415 0.0158,1.6415 -0.15299,0 -3.58951,-1.73339 -7.63672,-3.85197 -6.18731,-3.23886 -7.53344,-3.76918 -8.457297,-3.3318 -0.604306,0.28609 -4.363849,2.01872 -8.354539,3.85027 -6.552408,3.00728 -7.223943,3.2201 -6.92718,2.19538 l 0,0 z"
         style="fill:#c83737;fill-opacity:0;stroke:#d35f5f;stroke-width:3.09106684;stroke-miterlimit:4;stroke-opacity:1;stroke-dasharray:none" />
      <path
         inkscape:connector-curvature="0"
         id="path3322"
         d=""
         style="fill:#c83737;fill-opacity:0;stroke:#d35f5f;stroke-width:3.09106684;stroke-miterlimit:4;stroke-opacity:1;stroke-dasharray:none" />
      <path
         inkscape:connector-curvature="0"
         id="path3324"
         d="m 143.26468,285.29784 -1.87153,-10.26609 7.15053,-7.17954 c 3.93279,-3.94875 7.21336,-7.11672 7.29014,-7.03994 0.17093,0.17093 -4.94216,17.0382 -8.26456,27.26349 l -2.43306,7.48817 -1.87152,-10.26609 z"
         style="fill:#c83737;fill-opacity:0;stroke:#d35f5f;stroke-width:3.09106684;stroke-miterlimit:4;stroke-opacity:1;stroke-dasharray:none" />
      <path
         inkscape:connector-curvature="0"
         id="path3326"
         d="m 148.4192,229.46813 c -0.69448,-0.12195 -5.80838,-1.13114 -11.36422,-2.24264 -8.09422,-1.61934 -10.26232,-2.22699 -10.91069,-3.05795 -1.1901,-1.52525 -9.81514,-18.48512 -9.53303,-18.74532 0.20299,-0.18724 33.01146,22.91339 34.12328,24.02639 0.39248,0.39291 -0.16232,0.39759 -2.31534,0.0195 z"
         style="fill:#c83737;fill-opacity:0;stroke:#d35f5f;stroke-width:3.09106684;stroke-miterlimit:4;stroke-opacity:1;stroke-dasharray:none" />
      <path
         inkscape:connector-curvature="0"
         id="path3328"
         d="m 54.998125,225.59141 c 1.515629,-1.4355 28.45199,-21.0004 28.645835,-20.80656 0.230164,0.23017 -8.057367,16.7606 -9.06351,18.07821 -0.695583,0.91091 -3.1501,1.40004 -13.513742,2.69294 -7.149782,0.89196 -6.971842,0.89092 -6.068583,0.0354 z"
         style="fill:#c83737;fill-opacity:0;stroke:#d35f5f;stroke-width:3.09106684;stroke-miterlimit:4;stroke-opacity:1;stroke-dasharray:none" />
      <path
         inkscape:connector-curvature="0"
         id="path3330"
         d="m 49.271003,275.83286 c -3.25077,-9.83769 -5.81364,-17.98356 -5.695266,-18.10193 0.118373,-0.11837 3.60654,3.15767 7.751481,7.28011 l 7.536257,7.49533 -1.84099,10.6066 -1.84099,10.6066 -5.910492,-17.88671 z"
         style="fill:#c83737;fill-opacity:0;stroke:#d35f5f;stroke-width:3.09106684;stroke-miterlimit:4;stroke-opacity:1;stroke-dasharray:none" />
      <path
         inkscape:connector-curvature="0"
         id="path3334"
         d="m 91.826709,307.97948 8.309811,-4.09009 6.58994,3.45489 c 3.62446,1.90018 7.03826,3.75991 7.5862,4.13273 0.84279,0.57342 -1.45253,0.67128 -14.899748,0.6352 l -15.896016,-0.0426 8.309813,-4.09009 z"
         style="fill:#c83737;fill-opacity:0;stroke:#d35f5f;stroke-width:3.09106684;stroke-miterlimit:4;stroke-opacity:1;stroke-dasharray:none" />
      <path
         inkscape:connector-curvature="0"
         id="path3336"
         d="M 38.108764,279.71344 C 29.43541,253.9045 23.211272,234.63346 23.4692,234.38676 c 0.508212,-0.48611 74.438804,-55.19807 75.340385,-55.75528 0.794051,-0.49074 77.393475,54.16026 77.374215,55.20379 -0.008,0.43471 -6.3287,20.7914 -14.04594,45.23709 l -14.03135,44.44671 -2.39522,0.15501 -2.39523,0.15502 1.24764,-1.92278 c 1.25717,-1.93747 5.01195,-13.24801 15.64486,-47.12711 9.60344,-30.59896 11.03371,-35.84101 10.5764,-38.76326 -0.23484,-1.50067 -1.95926,-2.85772 -20.27632,-15.95664 -11.01081,-7.87406 -25.8154,-18.3604 -32.8991,-23.30297 -18.026466,-12.57779 -16.31111,-11.13829 -15.39162,-12.91639 0.88776,-1.71673 0.17029,-2.04086 -1.39065,-0.62823 -0.77711,0.70328 -1.130942,0.74965 -1.926948,0.25253 -1.31639,-0.82209 -1.387828,-0.7872 -1.131668,0.55282 0.18314,0.95804 -0.338371,1.55061 -2.974228,3.37946 -6.135374,4.25693 -34.615347,25.01447 -47.89556,34.90853 -12.308327,9.16998 -15.209488,11.67413 -14.429085,12.45453 0.879482,0.87949 7.676787,0.45291 25.735948,-1.61508 11.080133,-1.26882 20.353056,-2.30694 20.606493,-2.30694 0.253437,0 5.141439,-9.43495 10.862221,-20.96657 l 10.401417,-20.96657 2.44618,5.35627 c 3.32511,7.28086 17.42927,35.0272 18.55361,36.49952 0.59803,0.78312 1.74886,1.34371 3.3915,1.65205 1.36747,0.25669 11.32755,2.04904 22.13352,3.98301 10.80596,1.93397 19.72083,3.58994 19.81082,3.67994 0.09,0.09 -1.13722,1.25489 -2.72715,2.58867 -4.30006,3.60729 -19.82543,18.16022 -25.75619,24.14295 l -5.18774,5.2332 4.08093,22.38482 c 2.24451,12.31165 3.96797,22.49779 3.8299,22.63586 -0.13807,0.13807 -4.98119,-2.35551 -10.76248,-5.54128 -5.7813,-3.18577 -14.58583,-8.00659 -19.56563,-10.71293 l -9.05418,-4.92062 -2.057496,0.61607 c -1.131623,0.33884 -10.675761,4.79445 -21.209193,9.90136 -10.53343,5.10692 -19.185687,9.22888 -19.227235,9.15992 -0.04155,-0.069 1.702491,-10.35318 3.875644,-22.85382 l 3.951188,-22.72843 -17.41447,-17.36921 C 32.18136,235.64994 31.745954,235.26038 30.623326,236.00214 c -0.632275,0.41776 -1.218575,1.2171 -1.302888,1.7763 -0.261112,1.73179 25.602005,78.9221 26.443364,78.9221 0.402333,0 0.731514,0.19251 0.731514,0.4278 0,0.23528 0.448263,0.94464 0.996141,1.57635 l 0.996142,1.14856 41.422336,-0.20346 41.422335,-0.20346 0.40365,2.03637 0.40364,2.03637 -13.14889,0.33097 c -7.23189,0.18204 -27.24396,0.42771 -44.471268,0.54594 l -31.322378,0.21496 -15.08826,-44.8975 0,0 z m 97.178446,28.21421 c 0,-0.30334 -4.39305,-25.82671 -5.52856,-32.12061 -0.99584,-5.51975 -1.00319,-5.82876 -0.15719,-6.60413 7.67697,-7.03605 25.88014,-25.0068 25.74398,-25.41528 -0.22179,-0.6654 -2.60983,-1.1731 -21.51457,-4.57402 -13.46755,-2.42278 -14.92586,-2.78195 -15.75932,-3.88144 -0.50515,-0.66638 -4.73641,-8.53752 -9.40279,-17.49141 -4.66639,-8.9539 -8.59799,-16.2798 -8.736885,-16.27977 -0.138896,2e-5 -4.112245,7.5053 -8.829663,16.67839 -6.404639,12.45392 -8.835304,16.73146 -9.596449,16.88805 -1.195687,0.24599 -35.691095,4.29644 -36.590397,4.29644 -1.210346,0 1.861443,3.44657 14.247729,15.98604 l 12.547859,12.70305 -3.047695,18.83657 c -1.676232,10.36011 -2.943448,18.94081 -2.816035,19.06823 0.278799,0.2788 3.429461,-1.1547 21.124,-9.61105 l 13.555856,-6.47844 16.74872,9.08472 c 14.84722,8.05332 18.01141,9.61942 18.01141,8.91466 z"
         style="fill:#c83737;fill-opacity:0;stroke:#800072;stroke-width:3.09106684;stroke-miterlimit:4;stroke-opacity:1;stroke-dasharray:none" />
      <path
         inkscape:connector-curvature="0"
         id="path3338"
         d="m 91.878859,310.38588 -1.064236,-0.10391 4.658156,-2.27069 4.658161,-2.27069 4.30168,2.26397 c 2.67298,1.40678 4.21952,2.31619 4.08465,2.40188 -0.24663,0.15673 -15.009487,0.13848 -16.638411,-0.0206 l 0,0 z"
         style="fill:#c83737;fill-opacity:0;stroke:#800080;stroke-width:1.09285712;stroke-miterlimit:4;stroke-opacity:1;stroke-dasharray:none" />
      <path
         inkscape:connector-curvature="0"
         id="path3340"
         d="m 145.30123,287.2996 c -0.15031,-0.81506 -0.69809,-3.7961 -1.21729,-6.62455 l -0.94401,-5.14262 4.58186,-4.58186 c 2.52002,-2.52002 4.63214,-4.53157 4.6936,-4.47011 0.0615,0.0615 -0.10184,0.82141 -0.3629,1.68877 -0.81305,2.70133 -6.38145,20.50268 -6.431,20.55894 -0.0258,0.0293 -0.16996,-0.61352 -0.32026,-1.42857 z"
         style="fill:#c83737;fill-opacity:0;stroke:#800080;stroke-width:1.09285712;stroke-miterlimit:4;stroke-opacity:1;stroke-dasharray:none" />
      <path
         inkscape:connector-curvature="0"
         id="path3342"
         d="m 109.1931,276.16489 c -7.30686,-3.76797 -8.38557,-4.14622 -10.005013,-3.50825 -0.488316,0.19237 -3.530718,1.56711 -6.76089,3.05498 -3.230173,1.48787 -5.900212,2.67805 -5.93342,2.64484 -0.03321,-0.0332 0.01636,-1.70284 0.110153,-3.71029 0.346792,-7.42251 0.175013,-12.12302 -0.480835,-13.15737 -0.78931,-1.24484 -4.823957,-6.36632 -7.233704,-9.1823 l -0.86531,-1.01118 1.745221,-0.38599 c 4.493975,-0.99393 9.526297,-2.31958 10.43215,-2.74812 1.979957,-0.93667 3.291748,-2.44678 7.434383,-8.55833 1.321984,-1.9503 2.460455,-3.47928 2.529945,-3.39774 0.0695,0.0815 1.03589,1.63486 2.14755,3.45183 4.14145,6.76899 5.79438,8.6738 8.83141,10.1771 1.71564,0.84923 4.05559,1.57011 9.87871,3.04338 0.90849,0.22985 1.65179,0.4688 1.65179,0.531 0,0.0622 -0.66295,0.83333 -1.47322,1.71362 -4.60758,5.00575 -6.3966,7.48149 -7.27724,10.07061 -0.56129,1.65022 -0.67592,5.65546 -0.27854,9.73215 0.16275,1.66964 0.3377,3.17634 0.38878,3.34821 0.0511,0.17188 0.0272,0.30655 -0.0531,0.29928 -0.0803,-0.007 -2.23525,-1.09062 -4.78882,-2.40743 z"
         style="fill:#c83737;fill-opacity:0;stroke:#800080;stroke-width:1.09285712;stroke-miterlimit:4;stroke-opacity:1;stroke-dasharray:none" />
      <path
         inkscape:connector-curvature="0"
         id="path3344"
         d="m 54.606219,286.70324 c -0.09331,-0.15895 -2.79502,-8.38076 -6.211189,-18.90181 -0.793776,-2.44466 -1.401792,-4.48627 -1.351148,-4.53691 0.05064,-0.0507 2.337217,2.15042 5.081272,4.89125 l 4.989191,4.98334 -1.203792,6.8677 c -0.662086,3.77724 -1.249036,6.79063 -1.304334,6.69643 z"
         style="fill:#c83737;fill-opacity:0;stroke:#800080;stroke-width:1.09285712;stroke-miterlimit:4;stroke-opacity:1;stroke-dasharray:none" />
      <path
         inkscape:connector-curvature="0"
         id="path3346"
         d="m 60.182503,223.71379 c 0.676896,-0.53521 11.889945,-8.73533 15.409573,-11.26904 2.920918,-2.10271 3.868054,-2.70363 3.775695,-2.3955 -0.149984,0.50036 -3.873319,7.78454 -5.192157,10.15772 -1.099862,1.97914 -0.935181,1.88854 -4.529483,2.4918 -2.700916,0.45331 -8.638473,1.24602 -9.274631,1.23823 -0.396677,-0.005 -0.42414,-0.0373 -0.188997,-0.22321 l 0,0 z"
         style="fill:#c83737;fill-opacity:0;stroke:#4b0080;stroke-width:1.09285712;stroke-miterlimit:4;stroke-opacity:1;stroke-dasharray:none" />
      <path
         inkscape:connector-curvature="0"
         id="path3348"
         d="m 137.9431,225.73513 c -5.92848,-1.22041 -8.82819,-1.91633 -9.96628,-2.39185 -0.49149,-0.20536 -0.79567,-0.57675 -1.50951,-1.84304 -1.31319,-2.32951 -5.80844,-11.13643 -5.72624,-11.21863 0.0916,-0.0916 22.98345,15.93416 23.62167,16.53664 0.29126,0.27496 -0.33877,0.16866 -6.41964,-1.08312 l 0,0 z"
         style="fill:#c83737;fill-opacity:0;stroke:#800080;stroke-width:1.09285712;stroke-miterlimit:4;stroke-opacity:1;stroke-dasharray:none" />
      <path
         inkscape:connector-curvature="0"
         id="path3350"
         d="m 135.5606,224.56499 c -6.73752,-1.46569 -7.37943,-1.67711 -8.03485,-2.64642 -0.98296,-1.45371 -4.94122,-9.1947 -4.78267,-9.35325 0.0523,-0.0523 1.92668,1.17678 4.16537,2.7312 5.65475,3.92634 14.39279,10.07375 14.59715,10.26943 0.32562,0.3118 -0.71875,0.13596 -5.945,-1.00096 l 0,0 z"
         style="fill:#c83737;fill-opacity:0;stroke:#800080;stroke-width:1.09285712;stroke-miterlimit:4;stroke-opacity:1;stroke-dasharray:none" />
      <path
         inkscape:connector-curvature="0"
         id="path3352"
         d=""
         style="fill:#c83737;fill-opacity:0;stroke:#800080;stroke-width:1.09285712;stroke-miterlimit:4;stroke-opacity:1;stroke-dasharray:none" />
      <path
         inkscape:connector-curvature="0"
         id="path3354"
         d="m 87.22881,270.03739 c 0,-5.51567 -0.05682,-7.44351 -0.23696,-8.03984 -0.259889,-0.86031 -2.099517,-3.37582 -5.562997,-7.60683 l -2.191345,-2.67696 4.174223,-1.02465 c 2.295822,-0.56356 4.73575,-1.19518 5.422061,-1.40359 3.264205,-0.99123 4.085725,-1.78799 8.792622,-8.52767 1.326219,-1.89897 2.467146,-3.38558 2.535386,-3.30357 0.0683,0.082 0.59591,0.91251 1.17258,1.84555 4.91896,7.95875 6.8808,10.08287 10.73965,11.62803 0.73714,0.29517 3.14272,1.02991 5.34573,1.63277 2.20301,0.60286 4.00548,1.14625 4.00548,1.20753 0,0.0613 -0.81603,1.02963 -1.8134,2.1519 -4.33806,4.88131 -5.9947,7.45734 -6.50246,10.11115 -0.30918,1.61596 -0.33834,6.24127 -0.0575,9.11762 0.10894,1.11575 0.15783,2.06888 0.10864,2.11807 -0.0492,0.0492 -2.00663,-0.86857 -4.34987,-2.03947 -2.34324,-1.17091 -5.0156,-2.42993 -5.93859,-2.79782 -2.54463,-1.01426 -2.55226,-1.01259 -9.303984,2.04169 -3.09375,1.39952 -5.785714,2.6069 -5.982143,2.68305 -0.353555,0.13708 -0.357143,0.0656 -0.357143,-7.11696 z"
         style="fill:#c83737;fill-opacity:0;stroke:#800080;stroke-width:1.09285712;stroke-miterlimit:4;stroke-opacity:1;stroke-dasharray:none" />
      <path
         inkscape:connector-curvature="0"
         id="path3356"
         d="m 145.71975,286.06808 c -0.005,-0.0587 -0.40983,-2.26853 -0.89999,-4.91072 -0.49016,-2.64218 -0.89195,-4.96543 -0.89286,-5.16278 -10e-4,-0.22966 1.28148,-1.64075 3.56316,-3.9203 1.96065,-1.95881 3.60223,-3.52407 3.64795,-3.47835 0.0457,0.0457 -1.1527,4.01968 -2.66316,8.83101 -1.51046,4.81134 -2.75026,8.69985 -2.7551,8.64114 z"
         style="fill:#c83737;fill-opacity:0;stroke:#800080;stroke-width:1.09285712;stroke-miterlimit:4;stroke-opacity:1;stroke-dasharray:none" />
      <path
         inkscape:connector-curvature="0"
         id="path3358"
         d="m 96.693096,308.14411 3.392854,-1.66158 2.58435,1.34614 c 4.32514,2.25287 4.67625,2.00775 -2.852204,1.99127 l -6.517857,-0.0143 3.392857,-1.66157 0,0 z"
         style="fill:#c83737;fill-opacity:0;stroke:#800080;stroke-width:1.09285712;stroke-miterlimit:4;stroke-opacity:1;stroke-dasharray:none" />
      <path
         inkscape:connector-curvature="0"
         id="path3360"
         d="m 51.37443,274.80932 c -1.645597,-5.02335 -2.959334,-9.16602 -2.919417,-9.20594 0.03992,-0.0399 1.855021,1.67948 4.033564,3.82087 l 3.960988,3.89343 -0.946461,5.3125 c -0.520553,2.92188 -0.98926,5.3125 -1.041571,5.3125 -0.05231,0 -1.441507,-4.11001 -3.087103,-9.13336 z"
         style="fill:#c83737;fill-opacity:0;stroke:#800080;stroke-width:1.09285712;stroke-miterlimit:4;stroke-opacity:1;stroke-dasharray:none" />
      <path
         inkscape:connector-curvature="0"
         id="path3362"
         d="m 62.41631,222.8962 c 0.174438,-0.15797 13.638152,-9.98539 14.678572,-10.71417 0.319196,-0.22359 0.580357,-0.34748 0.580357,-0.27531 0,0.15264 -3.759413,7.48007 -4.406051,8.58778 -0.645349,1.10551 -1.334482,1.2884 -8.59116,2.27998 -2.353618,0.32161 -2.490585,0.32898 -2.261718,0.12172 z"
         style="fill:#c83737;fill-opacity:0;stroke:#800080;stroke-width:1.09285712;stroke-miterlimit:4;stroke-opacity:1;stroke-dasharray:none" />
      <path
         inkscape:connector-curvature="0"
         id="path3364"
         d="m 87.822998,269.1659 c -0.05921,-7.08366 -0.0602,-7.09987 -0.485468,-7.90179 -0.587657,-1.10815 -1.565814,-2.44319 -4.38299,-5.98214 -1.329118,-1.66964 -2.417833,-3.0832 -2.419368,-3.14123 -0.0015,-0.058 0.459091,-0.20888 1.023612,-0.33521 3.263262,-0.73029 8.508575,-2.22756 9.493222,-2.70984 1.645731,-0.80608 2.91706,-2.17809 6.169757,-6.65833 2.408519,-3.31747 2.870937,-3.86715 3.031677,-3.60373 0.10431,0.17096 1.20413,1.85248 2.44403,3.73673 4.6162,7.01508 6.01599,8.09664 13.2347,10.22594 2.18636,0.64491 4.03692,1.2324 4.11233,1.30552 0.0754,0.0731 -0.71287,1.13197 -1.75175,2.35298 -3.65207,4.29234 -5.19732,6.77792 -5.70975,9.18431 -0.28281,1.32808 -0.38437,7.58297 -0.15591,9.60229 l 0.11857,1.04797 -0.60486,-0.2613 c -0.33266,-0.14371 -2.25217,-1.06482 -4.26556,-2.0469 -4.72985,-2.30711 -5.79036,-2.71706 -7.02874,-2.71706 -1.267688,0 -2.43132,0.42516 -8.107242,2.96213 -2.507601,1.12083 -4.581247,2.03787 -4.608101,2.03787 -0.02685,0 -0.07553,-3.19419 -0.108159,-7.09821 z"
         style="fill:#c83737;fill-opacity:0;stroke:#800080;stroke-width:1.09285712;stroke-miterlimit:4;stroke-opacity:1;stroke-dasharray:none" />
      <path
         inkscape:connector-curvature="0"
         id="path3366"
         d="m 88.552143,273.71947 c -0.0088,-0.81027 -0.07249,-3.84375 -0.141594,-6.74107 -0.154525,-6.47893 0.262919,-5.4116 -4.517276,-11.54991 -1.16099,-1.49084 -2.110891,-2.78291 -2.110891,-2.87126 0,-0.0883 1.225446,-0.46908 2.723214,-0.84607 3.867276,-0.97339 6.792217,-1.94936 7.68684,-2.56488 1.184509,-0.81496 2.765972,-2.6039 5.416982,-6.12764 1.332202,-1.77078 2.483572,-3.15111 2.558612,-3.06742 0.075,0.0837 1.10519,1.59861 2.28924,3.36646 4.43954,6.62849 5.83012,7.70738 12.80725,9.9365 1.86608,0.59619 3.45757,1.14408 3.53665,1.21753 0.0791,0.0735 -0.59999,1.04921 -1.50905,2.16834 -3.51073,4.32196 -4.9513,6.79611 -5.34367,9.17763 -0.11327,0.6875 -0.21706,3.07812 -0.23065,5.31249 -0.0136,2.23437 -0.0464,4.06249 -0.0729,4.0625 -0.0265,10e-6 -0.77022,-0.3626 -1.65267,-0.80579 -2.8036,-1.40805 -6.66176,-3.15567 -7.55985,-3.42435 -1.02122,-0.30552 -2.467512,-0.3355 -3.448022,-0.0715 -0.869378,0.2341 -3.162072,1.17441 -7.167498,2.93962 -1.699793,0.74911 -3.126132,1.36201 -3.169643,1.36201 -0.04351,0 -0.08629,-0.66294 -0.09506,-1.47321 l 0,0 z"
         style="fill:#c83737;fill-opacity:0;stroke:#d4aa00;stroke-width:1.09285712;stroke-miterlimit:4;stroke-opacity:1;stroke-dasharray:none" />
      <path
         inkscape:connector-curvature="0"
         id="path3368"
         d="m 134.47004,223.67031 c -4.96437,-1.12332 -5.79732,-1.39938 -6.32652,-2.0968 -0.45995,-0.60615 -3.86061,-6.90229 -3.86094,-7.14833 -1.1e-4,-0.0784 0.3815,0.11903 0.84802,0.43869 1.05666,0.72402 13.49931,9.45988 13.60119,9.54925 0.22817,0.20018 -1.17587,-0.0445 -4.26175,-0.74281 z"
         style="fill:#c83737;fill-opacity:0;stroke:#d4aa00;stroke-width:1.09285712;stroke-miterlimit:4;stroke-opacity:1;stroke-dasharray:none" />
      <path
         inkscape:connector-curvature="0"
         id="path3370"
         d="m 145.19296,279.56513 -0.58801,-3.48469 1.61023,-1.73852 c 2.02844,-2.19004 3.68135,-3.78392 3.56217,-3.43495 -0.0503,0.14732 -0.42834,1.39286 -0.84006,2.76786 -1.34727,4.49948 -2.93065,9.375 -3.04463,9.375 -0.0614,0 -0.3763,-1.56812 -0.6997,-3.4847 z"
         style="fill:#c83737;fill-opacity:0;stroke:#d4aa00;stroke-width:1.09285712;stroke-miterlimit:4;stroke-opacity:1;stroke-dasharray:none" />
      <path
         inkscape:connector-curvature="0"
         id="path3372"
         d="m 96.44012,309.05248 c 0.04092,-0.0378 0.881768,-0.47235 1.868545,-0.9656 l 1.794145,-0.89682 1.77728,0.96229 1.77729,0.96229 -3.64583,0.003 c -2.00521,0.002 -3.612353,-0.0276 -3.57143,-0.0655 z"
         style="fill:#c83737;fill-opacity:0;stroke:#d4aa00;stroke-width:1.09285712;stroke-miterlimit:4;stroke-opacity:1;stroke-dasharray:none" />
      <path
         inkscape:connector-curvature="0"
         id="path3374"
         d="m 52.813049,277.02304 c -1.706933,-5.06559 -2.871894,-8.79865 -2.775757,-8.89479 0.04036,-0.0404 1.347173,1.15285 2.904037,2.65157 l 2.830661,2.72495 -0.657692,3.65646 c -0.36173,2.01105 -0.656713,3.71672 -0.655518,3.79038 0.0012,0.0737 -0.0606,0.13393 -0.137316,0.13393 -0.07672,0 -0.755506,-1.82812 -1.508415,-4.0625 z"
         style="fill:#c83737;fill-opacity:0;stroke:#d4aa00;stroke-width:1.09285712;stroke-miterlimit:4;stroke-opacity:1;stroke-dasharray:none" />
      <path
         inkscape:connector-curvature="0"
         id="path3376"
         d="m 64.639524,222.10405 c 0.394655,-0.3747 11.155505,-8.13682 11.207802,-8.08452 0.12675,0.12675 -3.180036,6.26086 -3.537073,6.56129 -0.416527,0.35049 -2.051558,0.74531 -4.649718,1.12279 -1.023163,0.14866 -2.141546,0.31864 -2.485296,0.37775 -0.34375,0.0591 -0.584822,0.0693 -0.535715,0.0227 z"
         style="fill:#c83737;fill-opacity:0;stroke:#d4aa00;stroke-width:1.09285712;stroke-miterlimit:4;stroke-opacity:1;stroke-dasharray:none" />
      <path
         inkscape:connector-curvature="0"
         id="path3378"
         d="m 89.207854,273.71947 c -0.04473,-0.22098 -0.126826,-2.8125 -0.18243,-5.75893 -0.06687,-3.54321 -0.182774,-5.70082 -0.342313,-6.37213 -0.293857,-1.2365 -0.743991,-1.95028 -3.592602,-5.69683 -1.223396,-1.60904 -2.166866,-2.97552 -2.096599,-3.03662 0.07027,-0.0611 1.092043,-0.36813 2.270614,-0.68229 3.420966,-0.91188 6.418625,-1.95482 7.303734,-2.54109 1.083412,-0.71762 2.466973,-2.24899 5.220821,-5.77858 l 2.271301,-2.9111 1.78014,2.61646 c 3.00434,4.4158 4.3795,5.99659 6.42476,7.3855 1.43519,0.97462 2.54785,1.46072 6.28496,2.74576 1.76786,0.6079 3.18915,1.17468 3.15842,1.25952 -0.0307,0.0848 -0.79916,1.11854 -1.70764,2.29711 -2.72365,3.5334 -3.74091,5.23176 -4.38528,7.32143 -0.32905,1.0671 -0.40146,1.85749 -0.49487,5.40179 -0.0602,2.28348 -0.12583,4.15178 -0.14587,4.15178 -0.02,0 -1.23274,-0.57041 -2.69489,-1.26757 -1.46214,-0.69717 -3.46201,-1.59336 -4.44416,-1.99154 -1.61819,-0.65604 -1.9281,-0.72288 -3.30357,-0.71251 -1.736179,0.0131 -1.975753,0.0916 -7.532408,2.46835 -1.933004,0.8268 -3.558705,1.50327 -3.612669,1.50327 -0.05397,0 -0.134716,-0.1808 -0.179449,-0.40178 z"
         style="fill:#c83737;fill-opacity:0;stroke:#d4aa00;stroke-width:1.09285712;stroke-miterlimit:4;stroke-opacity:1;stroke-dasharray:none" />
      <path
         inkscape:connector-curvature="0"
         id="path3380"
         d="m 89.749883,270.04722 c -0.0581,-1.73696 -0.181649,-4.42478 -0.274545,-5.97293 -0.223049,-3.71719 -0.270488,-3.8196 -4.180081,-9.0235 -0.710673,-0.94595 -1.177409,-1.72272 -1.085265,-1.80616 0.08892,-0.0805 1.567925,-0.56758 3.286675,-1.08235 3.776784,-1.13116 5.337776,-1.82801 6.517857,-2.90969 0.491072,-0.45012 2.017858,-2.22548 3.392858,-3.94524 1.375,-1.71976 2.545776,-3.13214 2.601728,-3.13861 0.0559,-0.006 0.57768,0.69135 1.1594,1.55073 2.97462,4.39436 5.21576,6.85865 7.45982,8.2026 0.65183,0.39037 2.71187,1.26586 4.57788,1.94554 1.86601,0.67969 3.39384,1.29993 3.39518,1.37833 0.001,0.0784 -0.58572,0.92215 -1.30456,1.875 -1.81004,2.39928 -2.65651,3.68061 -3.38985,5.13134 -1.0165,2.01088 -1.18235,2.84597 -1.37789,6.93793 -0.0984,2.05932 -0.20357,3.76885 -0.23368,3.79897 -0.0301,0.0301 -1.45564,-0.57852 -3.16782,-1.35252 -6.30796,-2.85153 -6.72572,-2.8496 -13.624369,0.0629 -1.558003,0.65776 -3.016099,1.26564 -3.240215,1.35085 l -0.407482,0.15493 -0.105641,-3.15811 z"
         style="fill:#c83737;fill-opacity:0;stroke:#d4aa00;stroke-width:1.09285712;stroke-miterlimit:4;stroke-opacity:1;stroke-dasharray:none" />
      <path
         inkscape:connector-curvature="0"
         id="path3382"
         d="m 90.46136,271.75518 c -0.0428,-0.22098 -0.163348,-2.49107 -0.267875,-5.04464 -0.262022,-6.40111 -0.252546,-6.37142 -3.433,-10.7577 -0.871886,-1.20245 -1.585246,-2.22107 -1.585246,-2.26359 0,-0.0425 1.38616,-0.53493 3.080357,-1.09424 5.253524,-1.73438 5.537053,-1.93212 9.397421,-6.55411 1.209947,-1.44866 2.264849,-2.63393 2.344227,-2.63393 0.07938,0 0.724686,0.81288 1.434026,1.80641 1.45873,2.04315 3.58058,4.61956 4.4802,5.43998 1.69582,1.54651 3.27255,2.38861 7.34413,3.92233 1.25223,0.4717 2.27678,0.91205 2.27678,0.97854 0,0.0665 -0.65172,1.0313 -1.44828,2.14403 -0.79655,1.11273 -1.84363,2.71177 -2.32684,3.55343 -1.3592,2.36742 -1.66005,3.67125 -1.86736,8.09278 -0.0679,1.44866 -0.18087,2.63393 -0.25098,2.63393 -0.0701,0 -1.24375,-0.4892 -2.60808,-1.0871 -6.03444,-2.64454 -6.92347,-2.63315 -13.672559,0.17523 -1.441291,0.59974 -2.665207,1.09044 -2.719812,1.09044 -0.05461,0 -0.134305,-0.1808 -0.177109,-0.40179 l 0,0 z"
         style="fill:#c83737;fill-opacity:0;stroke:#d4aa00;stroke-width:1.09285712;stroke-miterlimit:4;stroke-opacity:1;stroke-dasharray:none" />
    </g>
  </g>
</svg>
